<svg xmlns="http://www.w3.org/2000/svg" viewBox="0 0 800 500" width="800" height="500"><rect width="800" height="500" fill="#FFE08A"/><defs><pattern id="ht" width="20" height="20" patternUnits="userSpaceOnUse"><circle cx="4" cy="4" r="2.2" fill="#2D2640" opacity="0.1"/></pattern></defs><rect width="800" height="500" fill="url(#ht)"/><g><rect x="340" y="320" width="120" height="60" rx="14" fill="#57C4F0" stroke="#2D2640" stroke-width="7" stroke-linejoin="round" stroke-linecap="round"/><rect x="348" y="256" width="120" height="60" rx="14" fill="#FF6FA5" stroke="#2D2640" stroke-width="7" stroke-linejoin="round" stroke-linecap="round"/><rect x="356" y="192" width="120" height="60" rx="14" fill="#43D8A0" stroke="#2D2640" stroke-width="7" stroke-linejoin="round" stroke-linecap="round"/><g><circle cx="388.5" cy="201.0" r="10.5" fill="#fff" stroke="#2D2640" stroke-width="4" stroke-linejoin="round" stroke-linecap="round"/><circle cx="390.75" cy="202.5" r="4.41" fill="#2D2640"/><circle cx="427.5" cy="201.0" r="10.5" fill="#fff" stroke="#2D2640" stroke-width="4" stroke-linejoin="round" stroke-linecap="round"/><circle cx="429.75" cy="202.5" r="4.41" fill="#2D2640"/><path d="M385.5 217.5 Q408 246.0 430.5 217.5 Z" fill="#2D2640"/><path d="M385.5 217.5 Q408 226.5 430.5 217.5" fill="#fff"/></g><path d="M520 162 L525.4 174.6 L538 180 L525.4 185.4 L520 198 L514.6 185.4 L502 180 L514.6 174.6 Z" fill="#FFC83D" stroke="#2D2640" stroke-width="4" stroke-linejoin="round" stroke-linecap="round"/></g><g transform="rotate(-14 720 86)"><polygon points="720.0,30.0 730.7,53.0 752.9,40.7 748.1,65.6 773.3,68.7 754.7,86.0 773.3,103.3 748.1,106.4 752.9,131.3 730.7,119.0 720.0,142.0 709.3,119.0 687.1,131.3 691.9,106.4 666.7,103.3 685.3,86.0 666.7,68.7 691.9,65.6 687.1,40.7 709.3,53.0" fill="#FFC83D" stroke="#2D2640" stroke-width="5" stroke-linejoin="round" stroke-linecap="round"/><text x="720" y="92" font-family="Arial Black, sans-serif" font-weight="900" font-size="20" fill="#2D2640" text-anchor="middle">48H!</text></g></svg>