<svg xmlns="http://www.w3.org/2000/svg" viewBox="0 0 800 500" width="800" height="500" shape-rendering="crispEdges"><rect width="800" height="500" fill="#246b95"/><rect x="70" y="10" width="9" height="4" fill="#3a85ad" opacity="0.55"/><rect x="110" y="10" width="9" height="4" fill="#3a85ad" opacity="0.55"/><rect x="150" y="10" width="9" height="4" fill="#3a85ad" opacity="0.55"/><rect x="190" y="10" width="9" height="4" fill="#3a85ad" opacity="0.55"/><rect x="230" y="10" width="9" height="4" fill="#3a85ad" opacity="0.55"/><rect x="270" y="10" width="9" height="4" fill="#3a85ad" opacity="0.55"/><rect x="310" y="10" width="9" height="4" fill="#3a85ad" opacity="0.55"/><rect x="350" y="10" width="9" height="4" fill="#3a85ad" opacity="0.55"/><rect x="390" y="10" width="9" height="4" fill="#3a85ad" opacity="0.55"/><rect x="430" y="10" width="9" height="4" fill="#3a85ad" opacity="0.55"/><rect x="470" y="10" width="9" height="4" fill="#3a85ad" opacity="0.55"/><rect x="510" y="10" width="9" height="4" fill="#3a85ad" opacity="0.55"/><rect x="550" y="10" width="9" height="4" fill="#3a85ad" opacity="0.55"/><rect x="590" y="10" width="9" height="4" fill="#3a85ad" opacity="0.55"/><rect x="630" y="10" width="9" height="4" fill="#3a85ad" opacity="0.55"/><rect x="670" y="10" width="9" height="4" fill="#3a85ad" opacity="0.55"/><rect x="710" y="10" width="9" height="4" fill="#3a85ad" opacity="0.55"/><rect x="90" y="36" width="9" height="4" fill="#3a85ad" opacity="0.55"/><rect x="130" y="36" width="9" height="4" fill="#3a85ad" opacity="0.55"/><rect x="170" y="36" width="9" height="4" fill="#3a85ad" opacity="0.55"/><rect x="210" y="36" width="9" height="4" fill="#3a85ad" opacity="0.55"/><rect x="250" y="36" width="9" height="4" fill="#3a85ad" opacity="0.55"/><rect x="290" y="36" width="9" height="4" fill="#3a85ad" opacity="0.55"/><rect x="330" y="36" width="9" height="4" fill="#3a85ad" opacity="0.55"/><rect x="370" y="36" width="9" height="4" fill="#3a85ad" opacity="0.55"/><rect x="410" y="36" width="9" height="4" fill="#3a85ad" opacity="0.55"/><rect x="450" y="36" width="9" height="4" fill="#3a85ad" opacity="0.55"/><rect x="490" y="36" width="9" height="4" fill="#3a85ad" opacity="0.55"/><rect x="530" y="36" width="9" height="4" fill="#3a85ad" opacity="0.55"/><rect x="570" y="36" width="9" height="4" fill="#3a85ad" opacity="0.55"/><rect x="610" y="36" width="9" height="4" fill="#3a85ad" opacity="0.55"/><rect x="650" y="36" width="9" height="4" fill="#3a85ad" opacity="0.55"/><rect x="690" y="36" width="9" height="4" fill="#3a85ad" opacity="0.55"/><rect x="730" y="36" width="9" height="4" fill="#3a85ad" opacity="0.55"/><rect x="70" y="62" width="9" height="4" fill="#3a85ad" opacity="0.55"/><rect x="110" y="62" width="9" height="4" fill="#3a85ad" opacity="0.55"/><rect x="150" y="62" width="9" height="4" fill="#3a85ad" opacity="0.55"/><rect x="190" y="62" width="9" height="4" fill="#3a85ad" opacity="0.55"/><rect x="230" y="62" width="9" height="4" fill="#3a85ad" opacity="0.55"/><rect x="270" y="62" width="9" height="4" fill="#3a85ad" opacity="0.55"/><rect x="310" y="62" width="9" height="4" fill="#3a85ad" opacity="0.55"/><rect x="350" y="62" width="9" height="4" fill="#3a85ad" opacity="0.55"/><rect x="390" y="62" width="9" height="4" fill="#3a85ad" opacity="0.55"/><rect x="430" y="62" width="9" height="4" fill="#3a85ad" opacity="0.55"/><rect x="470" y="62" width="9" height="4" fill="#3a85ad" opacity="0.55"/><rect x="510" y="62" width="9" height="4" fill="#3a85ad" opacity="0.55"/><rect x="550" y="62" width="9" height="4" fill="#3a85ad" opacity="0.55"/><rect x="590" y="62" width="9" height="4" fill="#3a85ad" opacity="0.55"/><rect x="630" y="62" width="9" height="4" fill="#3a85ad" opacity="0.55"/><rect x="670" y="62" width="9" height="4" fill="#3a85ad" opacity="0.55"/><rect x="710" y="62" width="9" height="4" fill="#3a85ad" opacity="0.55"/><rect x="90" y="88" width="9" height="4" fill="#3a85ad" opacity="0.55"/><rect x="130" y="88" width="9" height="4" fill="#3a85ad" opacity="0.55"/><rect x="170" y="88" width="9" height="4" fill="#3a85ad" opacity="0.55"/><rect x="210" y="88" width="9" height="4" fill="#3a85ad" opacity="0.55"/><rect x="250" y="88" width="9" height="4" fill="#3a85ad" opacity="0.55"/><rect x="290" y="88" width="9" height="4" fill="#3a85ad" opacity="0.55"/><rect x="330" y="88" width="9" height="4" fill="#3a85ad" opacity="0.55"/><rect x="370" y="88" width="9" height="4" fill="#3a85ad" opacity="0.55"/><rect x="410" y="88" width="9" height="4" fill="#3a85ad" opacity="0.55"/><rect x="450" y="88" width="9" height="4" fill="#3a85ad" opacity="0.55"/><rect x="490" y="88" width="9" height="4" fill="#3a85ad" opacity="0.55"/><rect x="530" y="88" width="9" height="4" fill="#3a85ad" opacity="0.55"/><rect x="570" y="88" width="9" height="4" fill="#3a85ad" opacity="0.55"/><rect x="610" y="88" width="9" height="4" fill="#3a85ad" opacity="0.55"/><rect x="650" y="88" width="9" height="4" fill="#3a85ad" opacity="0.55"/><rect x="690" y="88" width="9" height="4" fill="#3a85ad" opacity="0.55"/><rect x="730" y="88" width="9" height="4" fill="#3a85ad" opacity="0.55"/><rect x="70" y="114" width="9" height="4" fill="#3a85ad" opacity="0.55"/><rect x="110" y="114" width="9" height="4" fill="#3a85ad" opacity="0.55"/><rect x="150" y="114" width="9" height="4" fill="#3a85ad" opacity="0.55"/><rect x="190" y="114" width="9" height="4" fill="#3a85ad" opacity="0.55"/><rect x="230" y="114" width="9" height="4" fill="#3a85ad" opacity="0.55"/><rect x="270" y="114" width="9" height="4" fill="#3a85ad" opacity="0.55"/><rect x="310" y="114" width="9" height="4" fill="#3a85ad" opacity="0.55"/><rect x="350" y="114" width="9" height="4" fill="#3a85ad" opacity="0.55"/><rect x="390" y="114" width="9" height="4" fill="#3a85ad" opacity="0.55"/><rect x="430" y="114" width="9" height="4" fill="#3a85ad" opacity="0.55"/><rect x="470" y="114" width="9" height="4" fill="#3a85ad" opacity="0.55"/><rect x="510" y="114" width="9" height="4" fill="#3a85ad" opacity="0.55"/><rect x="550" y="114" width="9" height="4" fill="#3a85ad" opacity="0.55"/><rect x="590" y="114" width="9" height="4" fill="#3a85ad" opacity="0.55"/><rect x="630" y="114" width="9" height="4" fill="#3a85ad" opacity="0.55"/><rect x="670" y="114" width="9" height="4" fill="#3a85ad" opacity="0.55"/><rect x="710" y="114" width="9" height="4" fill="#3a85ad" opacity="0.55"/><rect x="90" y="140" width="9" height="4" fill="#3a85ad" opacity="0.55"/><rect x="130" y="140" width="9" height="4" fill="#3a85ad" opacity="0.55"/><rect x="170" y="140" width="9" height="4" fill="#3a85ad" opacity="0.55"/><rect x="210" y="140" width="9" height="4" fill="#3a85ad" opacity="0.55"/><rect x="250" y="140" width="9" height="4" fill="#3a85ad" opacity="0.55"/><rect x="290" y="140" width="9" height="4" fill="#3a85ad" opacity="0.55"/><rect x="330" y="140" width="9" height="4" fill="#3a85ad" opacity="0.55"/><rect x="370" y="140" width="9" height="4" fill="#3a85ad" opacity="0.55"/><rect x="410" y="140" width="9" height="4" fill="#3a85ad" opacity="0.55"/><rect x="450" y="140" width="9" height="4" fill="#3a85ad" opacity="0.55"/><rect x="490" y="140" width="9" height="4" fill="#3a85ad" opacity="0.55"/><rect x="530" y="140" width="9" height="4" fill="#3a85ad" opacity="0.55"/><rect x="570" y="140" width="9" height="4" fill="#3a85ad" opacity="0.55"/><rect x="610" y="140" width="9" height="4" fill="#3a85ad" opacity="0.55"/><rect x="650" y="140" width="9" height="4" fill="#3a85ad" opacity="0.55"/><rect x="690" y="140" width="9" height="4" fill="#3a85ad" opacity="0.55"/><rect x="730" y="140" width="9" height="4" fill="#3a85ad" opacity="0.55"/><rect x="70" y="166" width="9" height="4" fill="#3a85ad" opacity="0.55"/><rect x="110" y="166" width="9" height="4" fill="#3a85ad" opacity="0.55"/><rect x="150" y="166" width="9" height="4" fill="#3a85ad" opacity="0.55"/><rect x="190" y="166" width="9" height="4" fill="#3a85ad" opacity="0.55"/><rect x="230" y="166" width="9" height="4" fill="#3a85ad" opacity="0.55"/><rect x="270" y="166" width="9" height="4" fill="#3a85ad" opacity="0.55"/><rect x="310" y="166" width="9" height="4" fill="#3a85ad" opacity="0.55"/><rect x="350" y="166" width="9" height="4" fill="#3a85ad" opacity="0.55"/><rect x="390" y="166" width="9" height="4" fill="#3a85ad" opacity="0.55"/><rect x="430" y="166" width="9" height="4" fill="#3a85ad" opacity="0.55"/><rect x="470" y="166" width="9" height="4" fill="#3a85ad" opacity="0.55"/><rect x="510" y="166" width="9" height="4" fill="#3a85ad" opacity="0.55"/><rect x="550" y="166" width="9" height="4" fill="#3a85ad" opacity="0.55"/><rect x="590" y="166" width="9" height="4" fill="#3a85ad" opacity="0.55"/><rect x="630" y="166" width="9" height="4" fill="#3a85ad" opacity="0.55"/><rect x="670" y="166" width="9" height="4" fill="#3a85ad" opacity="0.55"/><rect x="710" y="166" width="9" height="4" fill="#3a85ad" opacity="0.55"/><rect x="90" y="192" width="9" height="4" fill="#3a85ad" opacity="0.55"/><rect x="130" y="192" width="9" height="4" fill="#3a85ad" opacity="0.55"/><rect x="170" y="192" width="9" height="4" fill="#3a85ad" opacity="0.55"/><rect x="210" y="192" width="9" height="4" fill="#3a85ad" opacity="0.55"/><rect x="250" y="192" width="9" height="4" fill="#3a85ad" opacity="0.55"/><rect x="290" y="192" width="9" height="4" fill="#3a85ad" opacity="0.55"/><rect x="330" y="192" width="9" height="4" fill="#3a85ad" opacity="0.55"/><rect x="370" y="192" width="9" height="4" fill="#3a85ad" opacity="0.55"/><rect x="410" y="192" width="9" height="4" fill="#3a85ad" opacity="0.55"/><rect x="450" y="192" width="9" height="4" fill="#3a85ad" opacity="0.55"/><rect x="490" y="192" width="9" height="4" fill="#3a85ad" opacity="0.55"/><rect x="530" y="192" width="9" height="4" fill="#3a85ad" opacity="0.55"/><rect x="570" y="192" width="9" height="4" fill="#3a85ad" opacity="0.55"/><rect x="610" y="192" width="9" height="4" fill="#3a85ad" opacity="0.55"/><rect x="650" y="192" width="9" height="4" fill="#3a85ad" opacity="0.55"/><rect x="690" y="192" width="9" height="4" fill="#3a85ad" opacity="0.55"/><rect x="730" y="192" width="9" height="4" fill="#3a85ad" opacity="0.55"/><rect x="70" y="218" width="9" height="4" fill="#3a85ad" opacity="0.55"/><rect x="110" y="218" width="9" height="4" fill="#3a85ad" opacity="0.55"/><rect x="150" y="218" width="9" height="4" fill="#3a85ad" opacity="0.55"/><rect x="190" y="218" width="9" height="4" fill="#3a85ad" opacity="0.55"/><rect x="230" y="218" width="9" height="4" fill="#3a85ad" opacity="0.55"/><rect x="270" y="218" width="9" height="4" fill="#3a85ad" opacity="0.55"/><rect x="310" y="218" width="9" height="4" fill="#3a85ad" opacity="0.55"/><rect x="350" y="218" width="9" height="4" fill="#3a85ad" opacity="0.55"/><rect x="390" y="218" width="9" height="4" fill="#3a85ad" opacity="0.55"/><rect x="430" y="218" width="9" height="4" fill="#3a85ad" opacity="0.55"/><rect x="470" y="218" width="9" height="4" fill="#3a85ad" opacity="0.55"/><rect x="510" y="218" width="9" height="4" fill="#3a85ad" opacity="0.55"/><rect x="550" y="218" width="9" height="4" fill="#3a85ad" opacity="0.55"/><rect x="590" y="218" width="9" height="4" fill="#3a85ad" opacity="0.55"/><rect x="630" y="218" width="9" height="4" fill="#3a85ad" opacity="0.55"/><rect x="670" y="218" width="9" height="4" fill="#3a85ad" opacity="0.55"/><rect x="710" y="218" width="9" height="4" fill="#3a85ad" opacity="0.55"/><rect x="90" y="244" width="9" height="4" fill="#3a85ad" opacity="0.55"/><rect x="130" y="244" width="9" height="4" fill="#3a85ad" opacity="0.55"/><rect x="170" y="244" width="9" height="4" fill="#3a85ad" opacity="0.55"/><rect x="210" y="244" width="9" height="4" fill="#3a85ad" opacity="0.55"/><rect x="250" y="244" width="9" height="4" fill="#3a85ad" opacity="0.55"/><rect x="290" y="244" width="9" height="4" fill="#3a85ad" opacity="0.55"/><rect x="330" y="244" width="9" height="4" fill="#3a85ad" opacity="0.55"/><rect x="370" y="244" width="9" height="4" fill="#3a85ad" opacity="0.55"/><rect x="410" y="244" width="9" height="4" fill="#3a85ad" opacity="0.55"/><rect x="450" y="244" width="9" height="4" fill="#3a85ad" opacity="0.55"/><rect x="490" y="244" width="9" height="4" fill="#3a85ad" opacity="0.55"/><rect x="530" y="244" width="9" height="4" fill="#3a85ad" opacity="0.55"/><rect x="570" y="244" width="9" height="4" fill="#3a85ad" opacity="0.55"/><rect x="610" y="244" width="9" height="4" fill="#3a85ad" opacity="0.55"/><rect x="650" y="244" width="9" height="4" fill="#3a85ad" opacity="0.55"/><rect x="690" y="244" width="9" height="4" fill="#3a85ad" opacity="0.55"/><rect x="730" y="244" width="9" height="4" fill="#3a85ad" opacity="0.55"/><rect x="70" y="270" width="9" height="4" fill="#3a85ad" opacity="0.55"/><rect x="110" y="270" width="9" height="4" fill="#3a85ad" opacity="0.55"/><rect x="150" y="270" width="9" height="4" fill="#3a85ad" opacity="0.55"/><rect x="190" y="270" width="9" height="4" fill="#3a85ad" opacity="0.55"/><rect x="230" y="270" width="9" height="4" fill="#3a85ad" opacity="0.55"/><rect x="270" y="270" width="9" height="4" fill="#3a85ad" opacity="0.55"/><rect x="310" y="270" width="9" height="4" fill="#3a85ad" opacity="0.55"/><rect x="350" y="270" width="9" height="4" fill="#3a85ad" opacity="0.55"/><rect x="390" y="270" width="9" height="4" fill="#3a85ad" opacity="0.55"/><rect x="430" y="270" width="9" height="4" fill="#3a85ad" opacity="0.55"/><rect x="470" y="270" width="9" height="4" fill="#3a85ad" opacity="0.55"/><rect x="510" y="270" width="9" height="4" fill="#3a85ad" opacity="0.55"/><rect x="550" y="270" width="9" height="4" fill="#3a85ad" opacity="0.55"/><rect x="590" y="270" width="9" height="4" fill="#3a85ad" opacity="0.55"/><rect x="630" y="270" width="9" height="4" fill="#3a85ad" opacity="0.55"/><rect x="670" y="270" width="9" height="4" fill="#3a85ad" opacity="0.55"/><rect x="710" y="270" width="9" height="4" fill="#3a85ad" opacity="0.55"/><rect x="90" y="296" width="9" height="4" fill="#3a85ad" opacity="0.55"/><rect x="130" y="296" width="9" height="4" fill="#3a85ad" opacity="0.55"/><rect x="170" y="296" width="9" height="4" fill="#3a85ad" opacity="0.55"/><rect x="210" y="296" width="9" height="4" fill="#3a85ad" opacity="0.55"/><rect x="250" y="296" width="9" height="4" fill="#3a85ad" opacity="0.55"/><rect x="290" y="296" width="9" height="4" fill="#3a85ad" opacity="0.55"/><rect x="330" y="296" width="9" height="4" fill="#3a85ad" opacity="0.55"/><rect x="370" y="296" width="9" height="4" fill="#3a85ad" opacity="0.55"/><rect x="410" y="296" width="9" height="4" fill="#3a85ad" opacity="0.55"/><rect x="450" y="296" width="9" height="4" fill="#3a85ad" opacity="0.55"/><rect x="490" y="296" width="9" height="4" fill="#3a85ad" opacity="0.55"/><rect x="530" y="296" width="9" height="4" fill="#3a85ad" opacity="0.55"/><rect x="570" y="296" width="9" height="4" fill="#3a85ad" opacity="0.55"/><rect x="610" y="296" width="9" height="4" fill="#3a85ad" opacity="0.55"/><rect x="650" y="296" width="9" height="4" fill="#3a85ad" opacity="0.55"/><rect x="690" y="296" width="9" height="4" fill="#3a85ad" opacity="0.55"/><rect x="730" y="296" width="9" height="4" fill="#3a85ad" opacity="0.55"/><rect x="70" y="322" width="9" height="4" fill="#3a85ad" opacity="0.55"/><rect x="110" y="322" width="9" height="4" fill="#3a85ad" opacity="0.55"/><rect x="150" y="322" width="9" height="4" fill="#3a85ad" opacity="0.55"/><rect x="190" y="322" width="9" height="4" fill="#3a85ad" opacity="0.55"/><rect x="230" y="322" width="9" height="4" fill="#3a85ad" opacity="0.55"/><rect x="270" y="322" width="9" height="4" fill="#3a85ad" opacity="0.55"/><rect x="310" y="322" width="9" height="4" fill="#3a85ad" opacity="0.55"/><rect x="350" y="322" width="9" height="4" fill="#3a85ad" opacity="0.55"/><rect x="390" y="322" width="9" height="4" fill="#3a85ad" opacity="0.55"/><rect x="430" y="322" width="9" height="4" fill="#3a85ad" opacity="0.55"/><rect x="470" y="322" width="9" height="4" fill="#3a85ad" opacity="0.55"/><rect x="510" y="322" width="9" height="4" fill="#3a85ad" opacity="0.55"/><rect x="550" y="322" width="9" height="4" fill="#3a85ad" opacity="0.55"/><rect x="590" y="322" width="9" height="4" fill="#3a85ad" opacity="0.55"/><rect x="630" y="322" width="9" height="4" fill="#3a85ad" opacity="0.55"/><rect x="670" y="322" width="9" height="4" fill="#3a85ad" opacity="0.55"/><rect x="710" y="322" width="9" height="4" fill="#3a85ad" opacity="0.55"/><rect x="90" y="348" width="9" height="4" fill="#3a85ad" opacity="0.55"/><rect x="130" y="348" width="9" height="4" fill="#3a85ad" opacity="0.55"/><rect x="170" y="348" width="9" height="4" fill="#3a85ad" opacity="0.55"/><rect x="210" y="348" width="9" height="4" fill="#3a85ad" opacity="0.55"/><rect x="250" y="348" width="9" height="4" fill="#3a85ad" opacity="0.55"/><rect x="290" y="348" width="9" height="4" fill="#3a85ad" opacity="0.55"/><rect x="330" y="348" width="9" height="4" fill="#3a85ad" opacity="0.55"/><rect x="370" y="348" width="9" height="4" fill="#3a85ad" opacity="0.55"/><rect x="410" y="348" width="9" height="4" fill="#3a85ad" opacity="0.55"/><rect x="450" y="348" width="9" height="4" fill="#3a85ad" opacity="0.55"/><rect x="490" y="348" width="9" height="4" fill="#3a85ad" opacity="0.55"/><rect x="530" y="348" width="9" height="4" fill="#3a85ad" opacity="0.55"/><rect x="570" y="348" width="9" height="4" fill="#3a85ad" opacity="0.55"/><rect x="610" y="348" width="9" height="4" fill="#3a85ad" opacity="0.55"/><rect x="650" y="348" width="9" height="4" fill="#3a85ad" opacity="0.55"/><rect x="690" y="348" width="9" height="4" fill="#3a85ad" opacity="0.55"/><rect x="730" y="348" width="9" height="4" fill="#3a85ad" opacity="0.55"/><rect x="70" y="374" width="9" height="4" fill="#3a85ad" opacity="0.55"/><rect x="110" y="374" width="9" height="4" fill="#3a85ad" opacity="0.55"/><rect x="150" y="374" width="9" height="4" fill="#3a85ad" opacity="0.55"/><rect x="190" y="374" width="9" height="4" fill="#3a85ad" opacity="0.55"/><rect x="230" y="374" width="9" height="4" fill="#3a85ad" opacity="0.55"/><rect x="270" y="374" width="9" height="4" fill="#3a85ad" opacity="0.55"/><rect x="310" y="374" width="9" height="4" fill="#3a85ad" opacity="0.55"/><rect x="350" y="374" width="9" height="4" fill="#3a85ad" opacity="0.55"/><rect x="390" y="374" width="9" height="4" fill="#3a85ad" opacity="0.55"/><rect x="430" y="374" width="9" height="4" fill="#3a85ad" opacity="0.55"/><rect x="470" y="374" width="9" height="4" fill="#3a85ad" opacity="0.55"/><rect x="510" y="374" width="9" height="4" fill="#3a85ad" opacity="0.55"/><rect x="550" y="374" width="9" height="4" fill="#3a85ad" opacity="0.55"/><rect x="590" y="374" width="9" height="4" fill="#3a85ad" opacity="0.55"/><rect x="630" y="374" width="9" height="4" fill="#3a85ad" opacity="0.55"/><rect x="670" y="374" width="9" height="4" fill="#3a85ad" opacity="0.55"/><rect x="710" y="374" width="9" height="4" fill="#3a85ad" opacity="0.55"/><rect x="90" y="400" width="9" height="4" fill="#3a85ad" opacity="0.55"/><rect x="130" y="400" width="9" height="4" fill="#3a85ad" opacity="0.55"/><rect x="170" y="400" width="9" height="4" fill="#3a85ad" opacity="0.55"/><rect x="210" y="400" width="9" height="4" fill="#3a85ad" opacity="0.55"/><rect x="250" y="400" width="9" height="4" fill="#3a85ad" opacity="0.55"/><rect x="290" y="400" width="9" height="4" fill="#3a85ad" opacity="0.55"/><rect x="330" y="400" width="9" height="4" fill="#3a85ad" opacity="0.55"/><rect x="370" y="400" width="9" height="4" fill="#3a85ad" opacity="0.55"/><rect x="410" y="400" width="9" height="4" fill="#3a85ad" opacity="0.55"/><rect x="450" y="400" width="9" height="4" fill="#3a85ad" opacity="0.55"/><rect x="490" y="400" width="9" height="4" fill="#3a85ad" opacity="0.55"/><rect x="530" y="400" width="9" height="4" fill="#3a85ad" opacity="0.55"/><rect x="570" y="400" width="9" height="4" fill="#3a85ad" opacity="0.55"/><rect x="610" y="400" width="9" height="4" fill="#3a85ad" opacity="0.55"/><rect x="650" y="400" width="9" height="4" fill="#3a85ad" opacity="0.55"/><rect x="690" y="400" width="9" height="4" fill="#3a85ad" opacity="0.55"/><rect x="730" y="400" width="9" height="4" fill="#3a85ad" opacity="0.55"/><rect x="70" y="426" width="9" height="4" fill="#3a85ad" opacity="0.55"/><rect x="110" y="426" width="9" height="4" fill="#3a85ad" opacity="0.55"/><rect x="150" y="426" width="9" height="4" fill="#3a85ad" opacity="0.55"/><rect x="190" y="426" width="9" height="4" fill="#3a85ad" opacity="0.55"/><rect x="230" y="426" width="9" height="4" fill="#3a85ad" opacity="0.55"/><rect x="270" y="426" width="9" height="4" fill="#3a85ad" opacity="0.55"/><rect x="310" y="426" width="9" height="4" fill="#3a85ad" opacity="0.55"/><rect x="350" y="426" width="9" height="4" fill="#3a85ad" opacity="0.55"/><rect x="390" y="426" width="9" height="4" fill="#3a85ad" opacity="0.55"/><rect x="430" y="426" width="9" height="4" fill="#3a85ad" opacity="0.55"/><rect x="470" y="426" width="9" height="4" fill="#3a85ad" opacity="0.55"/><rect x="510" y="426" width="9" height="4" fill="#3a85ad" opacity="0.55"/><rect x="550" y="426" width="9" height="4" fill="#3a85ad" opacity="0.55"/><rect x="590" y="426" width="9" height="4" fill="#3a85ad" opacity="0.55"/><rect x="630" y="426" width="9" height="4" fill="#3a85ad" opacity="0.55"/><rect x="670" y="426" width="9" height="4" fill="#3a85ad" opacity="0.55"/><rect x="710" y="426" width="9" height="4" fill="#3a85ad" opacity="0.55"/><rect x="90" y="452" width="9" height="4" fill="#3a85ad" opacity="0.55"/><rect x="130" y="452" width="9" height="4" fill="#3a85ad" opacity="0.55"/><rect x="170" y="452" width="9" height="4" fill="#3a85ad" opacity="0.55"/><rect x="210" y="452" width="9" height="4" fill="#3a85ad" opacity="0.55"/><rect x="250" y="452" width="9" height="4" fill="#3a85ad" opacity="0.55"/><rect x="290" y="452" width="9" height="4" fill="#3a85ad" opacity="0.55"/><rect x="330" y="452" width="9" height="4" fill="#3a85ad" opacity="0.55"/><rect x="370" y="452" width="9" height="4" fill="#3a85ad" opacity="0.55"/><rect x="410" y="452" width="9" height="4" fill="#3a85ad" opacity="0.55"/><rect x="450" y="452" width="9" height="4" fill="#3a85ad" opacity="0.55"/><rect x="490" y="452" width="9" height="4" fill="#3a85ad" opacity="0.55"/><rect x="530" y="452" width="9" height="4" fill="#3a85ad" opacity="0.55"/><rect x="570" y="452" width="9" height="4" fill="#3a85ad" opacity="0.55"/><rect x="610" y="452" width="9" height="4" fill="#3a85ad" opacity="0.55"/><rect x="650" y="452" width="9" height="4" fill="#3a85ad" opacity="0.55"/><rect x="690" y="452" width="9" height="4" fill="#3a85ad" opacity="0.55"/><rect x="730" y="452" width="9" height="4" fill="#3a85ad" opacity="0.55"/><rect x="70" y="478" width="9" height="4" fill="#3a85ad" opacity="0.55"/><rect x="110" y="478" width="9" height="4" fill="#3a85ad" opacity="0.55"/><rect x="150" y="478" width="9" height="4" fill="#3a85ad" opacity="0.55"/><rect x="190" y="478" width="9" height="4" fill="#3a85ad" opacity="0.55"/><rect x="230" y="478" width="9" height="4" fill="#3a85ad" opacity="0.55"/><rect x="270" y="478" width="9" height="4" fill="#3a85ad" opacity="0.55"/><rect x="310" y="478" width="9" height="4" fill="#3a85ad" opacity="0.55"/><rect x="350" y="478" width="9" height="4" fill="#3a85ad" opacity="0.55"/><rect x="390" y="478" width="9" height="4" fill="#3a85ad" opacity="0.55"/><rect x="430" y="478" width="9" height="4" fill="#3a85ad" opacity="0.55"/><rect x="470" y="478" width="9" height="4" fill="#3a85ad" opacity="0.55"/><rect x="510" y="478" width="9" height="4" fill="#3a85ad" opacity="0.55"/><rect x="550" y="478" width="9" height="4" fill="#3a85ad" opacity="0.55"/><rect x="590" y="478" width="9" height="4" fill="#3a85ad" opacity="0.55"/><rect x="630" y="478" width="9" height="4" fill="#3a85ad" opacity="0.55"/><rect x="670" y="478" width="9" height="4" fill="#3a85ad" opacity="0.55"/><rect x="710" y="478" width="9" height="4" fill="#3a85ad" opacity="0.55"/><rect x="0" y="0" width="46" height="500" fill="#c2a875"/><rect x="41" y="0" width="5" height="12" fill="#9c855a"/><rect x="6" y="6" width="34" height="4" fill="#a89162"/><rect x="41" y="22" width="5" height="12" fill="#9c855a"/><rect x="6" y="28" width="34" height="4" fill="#a89162"/><rect x="41" y="44" width="5" height="12" fill="#9c855a"/><rect x="6" y="50" width="34" height="4" fill="#a89162"/><rect x="41" y="66" width="5" height="12" fill="#9c855a"/><rect x="6" y="72" width="34" height="4" fill="#a89162"/><rect x="41" y="88" width="5" height="12" fill="#9c855a"/><rect x="6" y="94" width="34" height="4" fill="#a89162"/><rect x="41" y="110" width="5" height="12" fill="#9c855a"/><rect x="6" y="116" width="34" height="4" fill="#a89162"/><rect x="41" y="132" width="5" height="12" fill="#9c855a"/><rect x="6" y="138" width="34" height="4" fill="#a89162"/><rect x="41" y="154" width="5" height="12" fill="#9c855a"/><rect x="6" y="160" width="34" height="4" fill="#a89162"/><rect x="41" y="176" width="5" height="12" fill="#9c855a"/><rect x="6" y="182" width="34" height="4" fill="#a89162"/><rect x="41" y="198" width="5" height="12" fill="#9c855a"/><rect x="6" y="204" width="34" height="4" fill="#a89162"/><rect x="41" y="220" width="5" height="12" fill="#9c855a"/><rect x="6" y="226" width="34" height="4" fill="#a89162"/><rect x="41" y="242" width="5" height="12" fill="#9c855a"/><rect x="6" y="248" width="34" height="4" fill="#a89162"/><rect x="41" y="264" width="5" height="12" fill="#9c855a"/><rect x="6" y="270" width="34" height="4" fill="#a89162"/><rect x="41" y="286" width="5" height="12" fill="#9c855a"/><rect x="6" y="292" width="34" height="4" fill="#a89162"/><rect x="41" y="308" width="5" height="12" fill="#9c855a"/><rect x="6" y="314" width="34" height="4" fill="#a89162"/><rect x="41" y="330" width="5" height="12" fill="#9c855a"/><rect x="6" y="336" width="34" height="4" fill="#a89162"/><rect x="41" y="352" width="5" height="12" fill="#9c855a"/><rect x="6" y="358" width="34" height="4" fill="#a89162"/><rect x="41" y="374" width="5" height="12" fill="#9c855a"/><rect x="6" y="380" width="34" height="4" fill="#a89162"/><rect x="41" y="396" width="5" height="12" fill="#9c855a"/><rect x="6" y="402" width="34" height="4" fill="#a89162"/><rect x="41" y="418" width="5" height="12" fill="#9c855a"/><rect x="6" y="424" width="34" height="4" fill="#a89162"/><rect x="41" y="440" width="5" height="12" fill="#9c855a"/><rect x="6" y="446" width="34" height="4" fill="#a89162"/><rect x="41" y="462" width="5" height="12" fill="#9c855a"/><rect x="6" y="468" width="34" height="4" fill="#a89162"/><rect x="41" y="484" width="5" height="12" fill="#9c855a"/><rect x="6" y="490" width="34" height="4" fill="#a89162"/><rect x="754" y="0" width="46" height="500" fill="#c2a875"/><rect x="754" y="0" width="5" height="12" fill="#9c855a"/><rect x="760" y="6" width="34" height="4" fill="#a89162"/><rect x="754" y="22" width="5" height="12" fill="#9c855a"/><rect x="760" y="28" width="34" height="4" fill="#a89162"/><rect x="754" y="44" width="5" height="12" fill="#9c855a"/><rect x="760" y="50" width="34" height="4" fill="#a89162"/><rect x="754" y="66" width="5" height="12" fill="#9c855a"/><rect x="760" y="72" width="34" height="4" fill="#a89162"/><rect x="754" y="88" width="5" height="12" fill="#9c855a"/><rect x="760" y="94" width="34" height="4" fill="#a89162"/><rect x="754" y="110" width="5" height="12" fill="#9c855a"/><rect x="760" y="116" width="34" height="4" fill="#a89162"/><rect x="754" y="132" width="5" height="12" fill="#9c855a"/><rect x="760" y="138" width="34" height="4" fill="#a89162"/><rect x="754" y="154" width="5" height="12" fill="#9c855a"/><rect x="760" y="160" width="34" height="4" fill="#a89162"/><rect x="754" y="176" width="5" height="12" fill="#9c855a"/><rect x="760" y="182" width="34" height="4" fill="#a89162"/><rect x="754" y="198" width="5" height="12" fill="#9c855a"/><rect x="760" y="204" width="34" height="4" fill="#a89162"/><rect x="754" y="220" width="5" height="12" fill="#9c855a"/><rect x="760" y="226" width="34" height="4" fill="#a89162"/><rect x="754" y="242" width="5" height="12" fill="#9c855a"/><rect x="760" y="248" width="34" height="4" fill="#a89162"/><rect x="754" y="264" width="5" height="12" fill="#9c855a"/><rect x="760" y="270" width="34" height="4" fill="#a89162"/><rect x="754" y="286" width="5" height="12" fill="#9c855a"/><rect x="760" y="292" width="34" height="4" fill="#a89162"/><rect x="754" y="308" width="5" height="12" fill="#9c855a"/><rect x="760" y="314" width="34" height="4" fill="#a89162"/><rect x="754" y="330" width="5" height="12" fill="#9c855a"/><rect x="760" y="336" width="34" height="4" fill="#a89162"/><rect x="754" y="352" width="5" height="12" fill="#9c855a"/><rect x="760" y="358" width="34" height="4" fill="#a89162"/><rect x="754" y="374" width="5" height="12" fill="#9c855a"/><rect x="760" y="380" width="34" height="4" fill="#a89162"/><rect x="754" y="396" width="5" height="12" fill="#9c855a"/><rect x="760" y="402" width="34" height="4" fill="#a89162"/><rect x="754" y="418" width="5" height="12" fill="#9c855a"/><rect x="760" y="424" width="34" height="4" fill="#a89162"/><rect x="754" y="440" width="5" height="12" fill="#9c855a"/><rect x="760" y="446" width="34" height="4" fill="#a89162"/><rect x="754" y="462" width="5" height="12" fill="#9c855a"/><rect x="760" y="468" width="34" height="4" fill="#a89162"/><rect x="754" y="484" width="5" height="12" fill="#9c855a"/><rect x="760" y="490" width="34" height="4" fill="#a89162"/><rect x="352.5" y="423.5" width="28.5" height="28.5" fill="#bcd8e6"/><rect x="419.0" y="423.5" width="28.5" height="28.5" fill="#bcd8e6"/><rect x="381.0" y="433.0" width="38.0" height="19.0" fill="#e8f6ff"/><rect x="352.5" y="195.5" width="95.0" height="209.0" fill="#9c2a16"/><rect x="343.0" y="233.5" width="114.0" height="133.0" fill="#9c2a16"/><rect x="362.0" y="205.0" width="76.0" height="190.0" fill="#3f7d3a"/><rect x="371.5" y="205.0" width="57.0" height="190.0" fill="#4f9b46"/><rect x="390.5" y="214.5" width="19.0" height="171.0" fill="#356b30"/><rect x="371.5" y="243.0" width="57.0" height="9.5" fill="#356b30"/><rect x="371.5" y="290.5" width="57.0" height="9.5" fill="#356b30"/><rect x="371.5" y="338.0" width="57.0" height="9.5" fill="#356b30"/><rect x="390.5" y="167.0" width="19.0" height="38.0" fill="#caa24a"/><rect x="362.0" y="385.5" width="76.0" height="38.0" fill="#e9eef2"/><rect x="371.5" y="395.0" width="57.0" height="19.0" fill="#b9c4cc"/><rect x="381.0" y="366.5" width="38.0" height="19.0" fill="#cfd8de"/><rect x="245.5" y="84.0" width="9.0" height="18.0" fill="#ffce3a"/><rect x="241.0" y="97.5" width="18.0" height="40.5" fill="#c9ced6"/><rect x="245.5" y="97.5" width="9.0" height="40.5" fill="#eef2f6"/><rect x="236.5" y="124.5" width="9.0" height="18.0" fill="#8a9099"/><rect x="254.5" y="124.5" width="9.0" height="18.0" fill="#8a9099"/><rect x="241.0" y="138.0" width="18.0" height="13.5" fill="#ff7a3a"/><rect x="245.5" y="142.5" width="9.0" height="13.5" fill="#ffd23a"/><rect x="526.4" y="129.0" width="16.8" height="8.4" fill="#5a6270"/><rect x="576.8" y="129.0" width="16.8" height="8.4" fill="#5a6270"/><rect x="530.6" y="124.8" width="12.6" height="12.6" fill="#39414f"/><rect x="576.8" y="124.8" width="12.6" height="12.6" fill="#39414f"/><rect x="547.4" y="137.4" width="25.2" height="25.2" fill="#2b3340"/><rect x="551.6" y="141.6" width="16.8" height="16.8" fill="#3c4757"/><rect x="555.8" y="145.8" width="8.4" height="8.4" fill="#ff4d4d"/><rect x="551.6" y="162.6" width="16.8" height="8.4" fill="#1e2530"/><rect x="232.0" y="353.0" width="36.0" height="54.0" fill="#2b2b2b"/><rect x="236.5" y="353.0" width="27.0" height="54.0" fill="#3a3a3a"/><rect x="232.0" y="362.0" width="36.0" height="4.5" fill="#d8a33a"/><rect x="232.0" y="389.0" width="36.0" height="4.5" fill="#d8a33a"/><rect x="232.0" y="371.0" width="36.0" height="13.5" fill="#caa24a"/><rect x="241.0" y="375.5" width="18.0" height="4.5" fill="#1d1d1d"/><rect x="232.0" y="348.5" width="36.0" height="9.0" fill="#444444"/><rect x="232.0" y="402.5" width="36.0" height="9.0" fill="#444444"/><rect x="542.0" y="333.0" width="36.0" height="36.0" fill="#e8eef2"/><rect x="537.5" y="337.5" width="45.0" height="27.0" fill="#e8eef2"/><rect x="546.5" y="328.5" width="27.0" height="45.0" fill="#e8eef2"/><rect x="546.5" y="337.5" width="18.0" height="13.5" fill="#ffffff"/><rect x="542.0" y="360.0" width="36.0" height="13.5" fill="#cdd6dc"/><rect x="542.0" y="369.0" width="9.0" height="18.0" fill="#9aa4ad"/><rect x="569.0" y="369.0" width="9.0" height="18.0" fill="#9aa4ad"/><rect x="546.5" y="346.5" width="9.0" height="4.5" fill="#b7c0c7"/><rect x="600.0" y="270.0" width="20.0" height="20.0" fill="#a9791f"/><rect x="595.0" y="285.0" width="30.0" height="5.0" fill="#caa24a"/><rect x="605.0" y="220.0" width="10.0" height="10.0" fill="#ffe79a"/><rect x="600.0" y="230.0" width="20.0" height="30.0" fill="#ffd23a"/><rect x="605.0" y="230.0" width="10.0" height="30.0" fill="#fff0b0"/><rect x="595.0" y="235.0" width="5.0" height="20.0" fill="#e0a92a"/><rect x="620.0" y="235.0" width="5.0" height="20.0" fill="#e0a92a"/><rect x="600.0" y="260.0" width="20.0" height="10.0" fill="#e0a92a"/><g transform="rotate(-14 720 86)"><polygon points="720.0,30.0 730.7,53.0 752.9,40.7 748.1,65.6 773.3,68.7 754.7,86.0 773.3,103.3 748.1,106.4 752.9,131.3 730.7,119.0 720.0,142.0 709.3,119.0 687.1,131.3 691.9,106.4 666.7,103.3 685.3,86.0 666.7,68.7 691.9,65.6 687.1,40.7 709.3,53.0" fill="#FFC83D" stroke="#2D2640" stroke-width="5" stroke-linejoin="round"/><text x="720" y="92" font-family="Arial Black,sans-serif" font-weight="900" font-size="20" fill="#2D2640" text-anchor="middle">48H!</text></g></svg>