<svg xmlns="http://www.w3.org/2000/svg" viewBox="0 0 220 240" width="220" height="240"><line x1="172" y1="60" x2="172" y2="138" stroke="#2D2640" stroke-width="6" stroke-linejoin="round" stroke-linecap="round"/><path d="M172 60 l46 12 l-46 16 Z" fill="#FF6A52" stroke="#2D2640" stroke-width="4" stroke-linejoin="round" stroke-linecap="round"/><text x="183" y="78" font-family="Arial Black,sans-serif" font-weight="900" font-size="13" fill="#fff">48</text><path d="M40 150 C30 70 90 40 110 40 C140 40 188 70 176 150 C170 210 130 214 108 214 C84 214 48 210 40 150 Z" fill="#FFC83D" stroke="#2D2640" stroke-width="7" stroke-linejoin="round" stroke-linecap="round"/><path d="M46 150 q-30 6 -36 34" fill="none" stroke="#2D2640" stroke-width="8" stroke-linejoin="round" stroke-linecap="round"/><path d="M172 150 q26 10 30 -16" fill="none" stroke="#2D2640" stroke-width="8" stroke-linejoin="round" stroke-linecap="round"/><ellipse cx="84" cy="216" rx="22" ry="12" fill="#2D2640"/><ellipse cx="132" cy="216" rx="22" ry="12" fill="#2D2640"/><circle cx="64" cy="132" r="12" fill="#FF6FA5" opacity="0.85"/><circle cx="156" cy="132" r="12" fill="#FF6FA5" opacity="0.85"/><g><circle cx="80.7" cy="103.8" r="14.700000000000001" fill="#fff" stroke="#2D2640" stroke-width="4" stroke-linejoin="round" stroke-linecap="round"/><circle cx="83.85000000000001" cy="105.89999999999999" r="6.174" fill="#2D2640"/><circle cx="135.3" cy="103.8" r="14.700000000000001" fill="#fff" stroke="#2D2640" stroke-width="4" stroke-linejoin="round" stroke-linecap="round"/><circle cx="138.45000000000002" cy="105.89999999999999" r="6.174" fill="#2D2640"/><path d="M76.5 126.9 Q108 166.8 139.5 126.9 Z" fill="#2D2640"/><path d="M76.5 126.9 Q108 139.5 139.5 126.9" fill="#fff"/></g></svg>