<svg xmlns="http://www.w3.org/2000/svg" viewBox="0 0 800 500" width="800" height="500"><rect width="800" height="500" fill="#9BD7F5"/><defs><pattern id="ht" width="20" height="20" patternUnits="userSpaceOnUse"><circle cx="4" cy="4" r="2.2" fill="#2D2640" opacity="0.1"/></pattern></defs><rect width="800" height="500" fill="url(#ht)"/><g><line x1="180" y1="210" x2="310" y2="210" stroke="#FF6A52" stroke-width="10" stroke-linejoin="round" stroke-linecap="round"/><line x1="180" y1="250" x2="310" y2="250" stroke="#FF6A52" stroke-width="10" stroke-linejoin="round" stroke-linecap="round"/><line x1="180" y1="290" x2="310" y2="290" stroke="#FF6A52" stroke-width="10" stroke-linejoin="round" stroke-linecap="round"/><rect x="310" y="220" width="200" height="74" rx="22" fill="#FF6A52" stroke="#2D2640" stroke-width="7" stroke-linejoin="round" stroke-linecap="round"/><path d="M350 220 q40 -54 110 0 Z" fill="#57C4F0" stroke="#2D2640" stroke-width="7" stroke-linejoin="round" stroke-linecap="round"/><circle cx="350" cy="300" r="30" fill="#2D2640"/><circle cx="350" cy="300" r="12" fill="#fff"/><circle cx="478" cy="300" r="30" fill="#2D2640"/><circle cx="478" cy="300" r="12" fill="#fff"/><g><circle cx="395.8" cy="221.2" r="9.799999999999999" fill="#fff" stroke="#2D2640" stroke-width="4" stroke-linejoin="round" stroke-linecap="round"/><circle cx="397.90000000000003" cy="222.6" r="4.116" fill="#2D2640"/><circle cx="432.2" cy="221.2" r="9.799999999999999" fill="#fff" stroke="#2D2640" stroke-width="4" stroke-linejoin="round" stroke-linecap="round"/><circle cx="434.3" cy="222.6" r="4.116" fill="#2D2640"/><path d="M395.8 239.4 Q414 257.6 432.2 239.4" fill="none" stroke="#2D2640" stroke-width="7" stroke-linejoin="round" stroke-linecap="round"/></g></g><g transform="rotate(-14 720 86)"><polygon points="720.0,30.0 730.7,53.0 752.9,40.7 748.1,65.6 773.3,68.7 754.7,86.0 773.3,103.3 748.1,106.4 752.9,131.3 730.7,119.0 720.0,142.0 709.3,119.0 687.1,131.3 691.9,106.4 666.7,103.3 685.3,86.0 666.7,68.7 691.9,65.6 687.1,40.7 709.3,53.0" fill="#FFC83D" stroke="#2D2640" stroke-width="5" stroke-linejoin="round" stroke-linecap="round"/><text x="720" y="92" font-family="Arial Black, sans-serif" font-weight="900" font-size="20" fill="#2D2640" text-anchor="middle">48H!</text></g></svg>