<svg xmlns="http://www.w3.org/2000/svg" viewBox="0 0 800 500" width="800" height="500"><defs>
      <linearGradient id="g" x1="0" y1="0" x2="1" y2="1">
        <stop offset="0" stop-color="#241326"/><stop offset="1" stop-color="#0E1230"/>
      </linearGradient>
      <radialGradient id="glow" cx="0.7" cy="0.25" r="0.8">
        <stop offset="0" stop-color="#FF4D6D" stop-opacity="0.55"/>
        <stop offset="1" stop-color="#FF4D6D" stop-opacity="0"/>
      </radialGradient></defs><rect width="800" height="500" fill="url(#g)"/><rect width="800" height="500" fill="url(#glow)"/><g opacity="0.05" stroke="#ffffff" stroke-width="1"><line x1="0" y1="0" x2="0" y2="500"/><line x1="40" y1="0" x2="40" y2="500"/><line x1="80" y1="0" x2="80" y2="500"/><line x1="120" y1="0" x2="120" y2="500"/><line x1="160" y1="0" x2="160" y2="500"/><line x1="200" y1="0" x2="200" y2="500"/><line x1="240" y1="0" x2="240" y2="500"/><line x1="280" y1="0" x2="280" y2="500"/><line x1="320" y1="0" x2="320" y2="500"/><line x1="360" y1="0" x2="360" y2="500"/><line x1="400" y1="0" x2="400" y2="500"/><line x1="440" y1="0" x2="440" y2="500"/><line x1="480" y1="0" x2="480" y2="500"/><line x1="520" y1="0" x2="520" y2="500"/><line x1="560" y1="0" x2="560" y2="500"/><line x1="600" y1="0" x2="600" y2="500"/><line x1="640" y1="0" x2="640" y2="500"/><line x1="680" y1="0" x2="680" y2="500"/><line x1="720" y1="0" x2="720" y2="500"/><line x1="760" y1="0" x2="760" y2="500"/><line x1="800" y1="0" x2="800" y2="500"/><line x1="0" y1="0" x2="800" y2="0"/><line x1="0" y1="40" x2="800" y2="40"/><line x1="0" y1="80" x2="800" y2="80"/><line x1="0" y1="120" x2="800" y2="120"/><line x1="0" y1="160" x2="800" y2="160"/><line x1="0" y1="200" x2="800" y2="200"/><line x1="0" y1="240" x2="800" y2="240"/><line x1="0" y1="280" x2="800" y2="280"/><line x1="0" y1="320" x2="800" y2="320"/><line x1="0" y1="360" x2="800" y2="360"/><line x1="0" y1="400" x2="800" y2="400"/><line x1="0" y1="440" x2="800" y2="440"/><line x1="0" y1="480" x2="800" y2="480"/></g><g fill="none" stroke-linecap="round"><path d="M-40 300 C 220 120, 380 360, 720 140" stroke="#FF4D6D" stroke-width="14" opacity="0.9"/><path d="M-40 326 C 220 146, 380 386, 720 166" stroke="#FF4D6D" stroke-width="10" opacity="0.5"/><path d="M-40 352 C 220 172, 380 412, 720 192" stroke="#FF4D6D" stroke-width="6" opacity="0.25"/><circle cx="690" cy="150" r="16" fill="#FF4D6D"/></g><rect width="800" height="500" fill="url(#glow)" opacity="0.25"/><g font-family="Courier New, monospace" font-weight="bold"><rect x="708" y="22" width="70" height="26" rx="6" fill="#FFD23F"/><text x="743" y="40" font-size="15" fill="#16131F" text-anchor="middle">48H</text></g><text x="40" y="446" font-family="Arial Black, Arial, sans-serif" font-weight="900" font-size="40" fill="#fff" letter-spacing="-1">NEON DRIFT</text><text x="42" y="470" font-family="Courier New, monospace" font-size="14" fill="#FF4D6D" letter-spacing="2">RACING // 48H JAM</text></svg>