<svg xmlns="http://www.w3.org/2000/svg" viewBox="0 0 800 500" width="800" height="500"><defs>
      <linearGradient id="g" x1="0" y1="0" x2="1" y2="1">
        <stop offset="0" stop-color="#0E2436"/><stop offset="1" stop-color="#0A1622"/>
      </linearGradient>
      <radialGradient id="glow" cx="0.7" cy="0.25" r="0.8">
        <stop offset="0" stop-color="#33C5E0" stop-opacity="0.55"/>
        <stop offset="1" stop-color="#33C5E0" stop-opacity="0"/>
      </radialGradient></defs><rect width="800" height="500" fill="url(#g)"/><rect width="800" height="500" fill="url(#glow)"/><g opacity="0.05" stroke="#ffffff" stroke-width="1"><line x1="0" y1="0" x2="0" y2="500"/><line x1="40" y1="0" x2="40" y2="500"/><line x1="80" y1="0" x2="80" y2="500"/><line x1="120" y1="0" x2="120" y2="500"/><line x1="160" y1="0" x2="160" y2="500"/><line x1="200" y1="0" x2="200" y2="500"/><line x1="240" y1="0" x2="240" y2="500"/><line x1="280" y1="0" x2="280" y2="500"/><line x1="320" y1="0" x2="320" y2="500"/><line x1="360" y1="0" x2="360" y2="500"/><line x1="400" y1="0" x2="400" y2="500"/><line x1="440" y1="0" x2="440" y2="500"/><line x1="480" y1="0" x2="480" y2="500"/><line x1="520" y1="0" x2="520" y2="500"/><line x1="560" y1="0" x2="560" y2="500"/><line x1="600" y1="0" x2="600" y2="500"/><line x1="640" y1="0" x2="640" y2="500"/><line x1="680" y1="0" x2="680" y2="500"/><line x1="720" y1="0" x2="720" y2="500"/><line x1="760" y1="0" x2="760" y2="500"/><line x1="800" y1="0" x2="800" y2="500"/><line x1="0" y1="0" x2="800" y2="0"/><line x1="0" y1="40" x2="800" y2="40"/><line x1="0" y1="80" x2="800" y2="80"/><line x1="0" y1="120" x2="800" y2="120"/><line x1="0" y1="160" x2="800" y2="160"/><line x1="0" y1="200" x2="800" y2="200"/><line x1="0" y1="240" x2="800" y2="240"/><line x1="0" y1="280" x2="800" y2="280"/><line x1="0" y1="320" x2="800" y2="320"/><line x1="0" y1="360" x2="800" y2="360"/><line x1="0" y1="400" x2="800" y2="400"/><line x1="0" y1="440" x2="800" y2="440"/><line x1="0" y1="480" x2="800" y2="480"/></g><g><line x1="430" y1="80" x2="770" y2="80" stroke="#33C5E0" stroke-width="1" opacity="0.25"/><line x1="430" y1="140" x2="770" y2="140" stroke="#33C5E0" stroke-width="1" opacity="0.25"/><line x1="430" y1="200" x2="770" y2="200" stroke="#33C5E0" stroke-width="1" opacity="0.25"/><line x1="430" y1="260" x2="770" y2="260" stroke="#33C5E0" stroke-width="1" opacity="0.25"/><line x1="430" y1="320" x2="770" y2="320" stroke="#33C5E0" stroke-width="1" opacity="0.25"/><line x1="430" y1="380" x2="770" y2="380" stroke="#33C5E0" stroke-width="1" opacity="0.25"/><ellipse cx="600" cy="180" rx="46" ry="28" fill="#FFD23F"/><circle cx="600" cy="180" r="13" fill="#16131F"/><rect x="592" y="148" width="16" height="16" rx="3" fill="#FFD23F"/><circle cx="656" cy="134" r="5.5" fill="#7BDFF2" opacity="0.4"/><circle cx="677" cy="252" r="6.3" fill="#7BDFF2" opacity="0.4"/><circle cx="503" cy="114" r="2.3" fill="#7BDFF2" opacity="0.4"/><circle cx="507" cy="197" r="6.6" fill="#7BDFF2" opacity="0.4"/><circle cx="494" cy="159" r="3.2" fill="#7BDFF2" opacity="0.4"/><circle cx="604" cy="189" r="6.1" fill="#7BDFF2" opacity="0.4"/><circle cx="729" cy="416" r="6.8" fill="#7BDFF2" opacity="0.4"/><circle cx="462" cy="127" r="4.8" fill="#7BDFF2" opacity="0.4"/><circle cx="484" cy="289" r="6.1" fill="#7BDFF2" opacity="0.4"/><circle cx="445" cy="232" r="5.1" fill="#7BDFF2" opacity="0.4"/><circle cx="517" cy="152" r="2.6" fill="#7BDFF2" opacity="0.4"/><circle cx="486" cy="139" r="5.8" fill="#7BDFF2" opacity="0.4"/><circle cx="715" cy="346" r="4.3" fill="#7BDFF2" opacity="0.4"/><circle cx="608" cy="329" r="4.0" fill="#7BDFF2" opacity="0.4"/><circle cx="594" cy="239" r="4.4" fill="#7BDFF2" opacity="0.4"/><circle cx="536" cy="155" r="2.1" fill="#7BDFF2" opacity="0.4"/></g><rect width="800" height="500" fill="url(#glow)" opacity="0.25"/><g font-family="Courier New, monospace" font-weight="bold"><rect x="708" y="22" width="70" height="26" rx="6" fill="#FFD23F"/><text x="743" y="40" font-size="15" fill="#16131F" text-anchor="middle">48H</text></g><text x="40" y="446" font-family="Arial Black, Arial, sans-serif" font-weight="900" font-size="40" fill="#fff" letter-spacing="-1">PIXEL DIVER</text><text x="42" y="470" font-family="Courier New, monospace" font-size="14" fill="#33C5E0" letter-spacing="2">ARCADE // 48H JAM</text></svg>