<svg xmlns="http://www.w3.org/2000/svg" viewBox="0 0 800 500" width="800" height="500"><rect width="800" height="500" fill="#86D6EE"/><defs><pattern id="ht" width="20" height="20" patternUnits="userSpaceOnUse"><circle cx="4" cy="4" r="2.2" fill="#2D2640" opacity="0.1"/></pattern></defs><rect width="800" height="500" fill="url(#ht)"/><g><ellipse cx="400" cy="250" rx="120" ry="70" fill="#FFC83D" stroke="#2D2640" stroke-width="7" stroke-linejoin="round" stroke-linecap="round"/><rect x="382" y="146" width="44" height="46" rx="10" fill="#FFC83D" stroke="#2D2640" stroke-width="7" stroke-linejoin="round" stroke-linecap="round"/><circle cx="434" cy="250" r="34" fill="#57C4F0" stroke="#2D2640" stroke-width="7" stroke-linejoin="round" stroke-linecap="round"/><g><circle cx="419.7" cy="241.8" r="7.700000000000001" fill="#fff" stroke="#2D2640" stroke-width="4" stroke-linejoin="round" stroke-linecap="round"/><circle cx="421.34999999999997" cy="242.9" r="3.2340000000000004" fill="#2D2640"/><circle cx="448.3" cy="241.8" r="7.700000000000001" fill="#fff" stroke="#2D2640" stroke-width="4" stroke-linejoin="round" stroke-linecap="round"/><circle cx="449.95" cy="242.9" r="3.2340000000000004" fill="#2D2640"/><ellipse cx="434" cy="260.5" rx="6.6000000000000005" ry="8.25" fill="#2D2640"/></g><circle cx="550" cy="210" r="16" fill="#fff" stroke="#2D2640" stroke-width="4" stroke-linejoin="round" stroke-linecap="round" opacity="0.9"/><circle cx="585" cy="172" r="11" fill="#fff" stroke="#2D2640" stroke-width="4" stroke-linejoin="round" stroke-linecap="round" opacity="0.9"/><circle cx="550" cy="154" r="8" fill="#fff" stroke="#2D2640" stroke-width="4" stroke-linejoin="round" stroke-linecap="round" opacity="0.9"/></g><g transform="rotate(-14 720 86)"><polygon points="720.0,30.0 730.7,53.0 752.9,40.7 748.1,65.6 773.3,68.7 754.7,86.0 773.3,103.3 748.1,106.4 752.9,131.3 730.7,119.0 720.0,142.0 709.3,119.0 687.1,131.3 691.9,106.4 666.7,103.3 685.3,86.0 666.7,68.7 691.9,65.6 687.1,40.7 709.3,53.0" fill="#FFC83D" stroke="#2D2640" stroke-width="5" stroke-linejoin="round" stroke-linecap="round"/><text x="720" y="92" font-family="Arial Black, sans-serif" font-weight="900" font-size="20" fill="#2D2640" text-anchor="middle">48H!</text></g></svg>