<svg xmlns="http://www.w3.org/2000/svg" viewBox="0 0 720 450" width="720" height="450"><defs><linearGradient id="sg" x1="0" y1="0" x2="1" y2="1"><stop offset="0" stop-color="#0E2436"/><stop offset="1" stop-color="#0A1622"/></linearGradient></defs><rect width="720" height="450" fill="url(#sg)"/><g opacity="0.05" stroke="#ffffff" stroke-width="1"><line x1="0" y1="0" x2="0" y2="450"/><line x1="36" y1="0" x2="36" y2="450"/><line x1="72" y1="0" x2="72" y2="450"/><line x1="108" y1="0" x2="108" y2="450"/><line x1="144" y1="0" x2="144" y2="450"/><line x1="180" y1="0" x2="180" y2="450"/><line x1="216" y1="0" x2="216" y2="450"/><line x1="252" y1="0" x2="252" y2="450"/><line x1="288" y1="0" x2="288" y2="450"/><line x1="324" y1="0" x2="324" y2="450"/><line x1="360" y1="0" x2="360" y2="450"/><line x1="396" y1="0" x2="396" y2="450"/><line x1="432" y1="0" x2="432" y2="450"/><line x1="468" y1="0" x2="468" y2="450"/><line x1="504" y1="0" x2="504" y2="450"/><line x1="540" y1="0" x2="540" y2="450"/><line x1="576" y1="0" x2="576" y2="450"/><line x1="612" y1="0" x2="612" y2="450"/><line x1="648" y1="0" x2="648" y2="450"/><line x1="684" y1="0" x2="684" y2="450"/><line x1="720" y1="0" x2="720" y2="450"/><line x1="0" y1="0" x2="720" y2="0"/><line x1="0" y1="36" x2="720" y2="36"/><line x1="0" y1="72" x2="720" y2="72"/><line x1="0" y1="108" x2="720" y2="108"/><line x1="0" y1="144" x2="720" y2="144"/><line x1="0" y1="180" x2="720" y2="180"/><line x1="0" y1="216" x2="720" y2="216"/><line x1="0" y1="252" x2="720" y2="252"/><line x1="0" y1="288" x2="720" y2="288"/><line x1="0" y1="324" x2="720" y2="324"/><line x1="0" y1="360" x2="720" y2="360"/><line x1="0" y1="396" x2="720" y2="396"/><line x1="0" y1="432" x2="720" y2="432"/></g><g><line x1="430" y1="80" x2="770" y2="80" stroke="#33C5E0" stroke-width="1" opacity="0.25"/><line x1="430" y1="140" x2="770" y2="140" stroke="#33C5E0" stroke-width="1" opacity="0.25"/><line x1="430" y1="200" x2="770" y2="200" stroke="#33C5E0" stroke-width="1" opacity="0.25"/><line x1="430" y1="260" x2="770" y2="260" stroke="#33C5E0" stroke-width="1" opacity="0.25"/><line x1="430" y1="320" x2="770" y2="320" stroke="#33C5E0" stroke-width="1" opacity="0.25"/><line x1="430" y1="380" x2="770" y2="380" stroke="#33C5E0" stroke-width="1" opacity="0.25"/><ellipse cx="600" cy="180" rx="46" ry="28" fill="#FFD23F"/><circle cx="600" cy="180" r="13" fill="#16131F"/><rect x="592" y="148" width="16" height="16" rx="3" fill="#FFD23F"/><circle cx="629" cy="132" r="6.6" fill="#7BDFF2" opacity="0.4"/><circle cx="530" cy="292" r="2.5" fill="#7BDFF2" opacity="0.4"/><circle cx="743" cy="104" r="6.1" fill="#7BDFF2" opacity="0.4"/><circle cx="495" cy="401" r="3.2" fill="#7BDFF2" opacity="0.4"/><circle cx="491" cy="331" r="3.4" fill="#7BDFF2" opacity="0.4"/><circle cx="457" cy="342" r="4.5" fill="#7BDFF2" opacity="0.4"/><circle cx="675" cy="357" r="5.7" fill="#7BDFF2" opacity="0.4"/><circle cx="604" cy="341" r="6.4" fill="#7BDFF2" opacity="0.4"/><circle cx="649" cy="402" r="4.3" fill="#7BDFF2" opacity="0.4"/><circle cx="493" cy="163" r="2.6" fill="#7BDFF2" opacity="0.4"/><circle cx="683" cy="169" r="5.4" fill="#7BDFF2" opacity="0.4"/><circle cx="600" cy="336" r="2.0" fill="#7BDFF2" opacity="0.4"/><circle cx="667" cy="99" r="5.8" fill="#7BDFF2" opacity="0.4"/><circle cx="537" cy="380" r="7.0" fill="#7BDFF2" opacity="0.4"/><circle cx="501" cy="418" r="3.3" fill="#7BDFF2" opacity="0.4"/><circle cx="750" cy="131" r="6.5" fill="#7BDFF2" opacity="0.4"/></g><rect x="24" y="24" width="120" height="30" rx="8" fill="#000" opacity="0.35"/><text x="38" y="44" font-family="Courier New, monospace" font-size="15" fill="#33C5E0">SCORE</text><text x="24" y="428" font-family="Courier New, monospace" font-size="13" fill="#ffffff" opacity="0.75">DEPTH 240m</text></svg>