<svg xmlns="http://www.w3.org/2000/svg" viewBox="0 0 720 450" width="720" height="450"><defs><linearGradient id="sg" x1="0" y1="0" x2="1" y2="1"><stop offset="0" stop-color="#1A1340"/><stop offset="1" stop-color="#0C0E22"/></linearGradient></defs><rect width="720" height="450" fill="url(#sg)"/><g opacity="0.05" stroke="#ffffff" stroke-width="1"><line x1="0" y1="0" x2="0" y2="450"/><line x1="36" y1="0" x2="36" y2="450"/><line x1="72" y1="0" x2="72" y2="450"/><line x1="108" y1="0" x2="108" y2="450"/><line x1="144" y1="0" x2="144" y2="450"/><line x1="180" y1="0" x2="180" y2="450"/><line x1="216" y1="0" x2="216" y2="450"/><line x1="252" y1="0" x2="252" y2="450"/><line x1="288" y1="0" x2="288" y2="450"/><line x1="324" y1="0" x2="324" y2="450"/><line x1="360" y1="0" x2="360" y2="450"/><line x1="396" y1="0" x2="396" y2="450"/><line x1="432" y1="0" x2="432" y2="450"/><line x1="468" y1="0" x2="468" y2="450"/><line x1="504" y1="0" x2="504" y2="450"/><line x1="540" y1="0" x2="540" y2="450"/><line x1="576" y1="0" x2="576" y2="450"/><line x1="612" y1="0" x2="612" y2="450"/><line x1="648" y1="0" x2="648" y2="450"/><line x1="684" y1="0" x2="684" y2="450"/><line x1="720" y1="0" x2="720" y2="450"/><line x1="0" y1="0" x2="720" y2="0"/><line x1="0" y1="36" x2="720" y2="36"/><line x1="0" y1="72" x2="720" y2="72"/><line x1="0" y1="108" x2="720" y2="108"/><line x1="0" y1="144" x2="720" y2="144"/><line x1="0" y1="180" x2="720" y2="180"/><line x1="0" y1="216" x2="720" y2="216"/><line x1="0" y1="252" x2="720" y2="252"/><line x1="0" y1="288" x2="720" y2="288"/><line x1="0" y1="324" x2="720" y2="324"/><line x1="0" y1="360" x2="720" y2="360"/><line x1="0" y1="396" x2="720" y2="396"/><line x1="0" y1="432" x2="720" y2="432"/></g><g><circle cx="600" cy="170" r="70" fill="none" stroke="#A98BFF" stroke-width="2" opacity="0.5"/><circle cx="600" cy="170" r="120" fill="none" stroke="#A98BFF" stroke-width="2" opacity="0.3"/><circle cx="418" cy="104" r="3.2" fill="#fff" opacity="0.45"/><circle cx="751" cy="163" r="2.5" fill="#fff" opacity="0.93"/><circle cx="536" cy="87" r="2.9" fill="#fff" opacity="0.74"/><circle cx="450" cy="170" r="3.3" fill="#fff" opacity="0.65"/><circle cx="663" cy="221" r="2.4" fill="#fff" opacity="0.61"/><circle cx="466" cy="134" r="3.4" fill="#fff" opacity="0.70"/><circle cx="768" cy="165" r="3.9" fill="#fff" opacity="0.85"/><circle cx="449" cy="208" r="2.6" fill="#fff" opacity="0.94"/><circle cx="483" cy="178" r="2.9" fill="#fff" opacity="0.93"/><circle cx="578" cy="317" r="3.5" fill="#fff" opacity="0.55"/><circle cx="401" cy="257" r="1.8" fill="#fff" opacity="0.76"/><circle cx="500" cy="81" r="2.5" fill="#fff" opacity="0.94"/><circle cx="540" cy="260" r="1.9" fill="#fff" opacity="0.90"/><circle cx="524" cy="141" r="3.5" fill="#fff" opacity="0.93"/><circle cx="396" cy="80" r="3.8" fill="#fff" opacity="0.79"/><circle cx="412" cy="220" r="2.5" fill="#fff" opacity="0.71"/><circle cx="480" cy="207" r="2.2" fill="#fff" opacity="0.49"/><circle cx="702" cy="139" r="2.3" fill="#fff" opacity="0.69"/><circle cx="583" cy="71" r="3.0" fill="#fff" opacity="0.72"/><circle cx="364" cy="289" r="3.8" fill="#fff" opacity="0.73"/><circle cx="667" cy="195" r="3.3" fill="#fff" opacity="0.84"/><circle cx="550" cy="132" r="2.8" fill="#fff" opacity="0.67"/><circle cx="660" cy="169" r="3.7" fill="#fff" opacity="0.46"/><circle cx="598" cy="117" r="3.9" fill="#fff" opacity="0.58"/><circle cx="469" cy="62" r="2.5" fill="#fff" opacity="0.92"/><circle cx="395" cy="305" r="3.0" fill="#fff" opacity="0.83"/><circle cx="600" cy="170" r="13" fill="#FFD23F"/><circle cx="690" cy="120" r="6" fill="#A98BFF"/></g><rect x="24" y="24" width="120" height="30" rx="8" fill="#000" opacity="0.35"/><text x="38" y="44" font-family="Courier New, monospace" font-size="15" fill="#A98BFF">SCORE</text><text x="24" y="428" font-family="Courier New, monospace" font-size="13" fill="#ffffff" opacity="0.75">GRAVITY PULL</text></svg>