<svg xmlns="http://www.w3.org/2000/svg" viewBox="0 0 720 450" width="720" height="450" shape-rendering="crispEdges"><rect width="720" height="450" fill="#246b95"/><rect x="70" y="10" width="9" height="4" fill="#3a85ad" opacity="0.55"/><rect x="110" y="10" width="9" height="4" fill="#3a85ad" opacity="0.55"/><rect x="150" y="10" width="9" height="4" fill="#3a85ad" opacity="0.55"/><rect x="190" y="10" width="9" height="4" fill="#3a85ad" opacity="0.55"/><rect x="230" y="10" width="9" height="4" fill="#3a85ad" opacity="0.55"/><rect x="270" y="10" width="9" height="4" fill="#3a85ad" opacity="0.55"/><rect x="310" y="10" width="9" height="4" fill="#3a85ad" opacity="0.55"/><rect x="350" y="10" width="9" height="4" fill="#3a85ad" opacity="0.55"/><rect x="390" y="10" width="9" height="4" fill="#3a85ad" opacity="0.55"/><rect x="430" y="10" width="9" height="4" fill="#3a85ad" opacity="0.55"/><rect x="470" y="10" width="9" height="4" fill="#3a85ad" opacity="0.55"/><rect x="510" y="10" width="9" height="4" fill="#3a85ad" opacity="0.55"/><rect x="550" y="10" width="9" height="4" fill="#3a85ad" opacity="0.55"/><rect x="590" y="10" width="9" height="4" fill="#3a85ad" opacity="0.55"/><rect x="630" y="10" width="9" height="4" fill="#3a85ad" opacity="0.55"/><rect x="90" y="36" width="9" height="4" fill="#3a85ad" opacity="0.55"/><rect x="130" y="36" width="9" height="4" fill="#3a85ad" opacity="0.55"/><rect x="170" y="36" width="9" height="4" fill="#3a85ad" opacity="0.55"/><rect x="210" y="36" width="9" height="4" fill="#3a85ad" opacity="0.55"/><rect x="250" y="36" width="9" height="4" fill="#3a85ad" opacity="0.55"/><rect x="290" y="36" width="9" height="4" fill="#3a85ad" opacity="0.55"/><rect x="330" y="36" width="9" height="4" fill="#3a85ad" opacity="0.55"/><rect x="370" y="36" width="9" height="4" fill="#3a85ad" opacity="0.55"/><rect x="410" y="36" width="9" height="4" fill="#3a85ad" opacity="0.55"/><rect x="450" y="36" width="9" height="4" fill="#3a85ad" opacity="0.55"/><rect x="490" y="36" width="9" height="4" fill="#3a85ad" opacity="0.55"/><rect x="530" y="36" width="9" height="4" fill="#3a85ad" opacity="0.55"/><rect x="570" y="36" width="9" height="4" fill="#3a85ad" opacity="0.55"/><rect x="610" y="36" width="9" height="4" fill="#3a85ad" opacity="0.55"/><rect x="650" y="36" width="9" height="4" fill="#3a85ad" opacity="0.55"/><rect x="70" y="62" width="9" height="4" fill="#3a85ad" opacity="0.55"/><rect x="110" y="62" width="9" height="4" fill="#3a85ad" opacity="0.55"/><rect x="150" y="62" width="9" height="4" fill="#3a85ad" opacity="0.55"/><rect x="190" y="62" width="9" height="4" fill="#3a85ad" opacity="0.55"/><rect x="230" y="62" width="9" height="4" fill="#3a85ad" opacity="0.55"/><rect x="270" y="62" width="9" height="4" fill="#3a85ad" opacity="0.55"/><rect x="310" y="62" width="9" height="4" fill="#3a85ad" opacity="0.55"/><rect x="350" y="62" width="9" height="4" fill="#3a85ad" opacity="0.55"/><rect x="390" y="62" width="9" height="4" fill="#3a85ad" opacity="0.55"/><rect x="430" y="62" width="9" height="4" fill="#3a85ad" opacity="0.55"/><rect x="470" y="62" width="9" height="4" fill="#3a85ad" opacity="0.55"/><rect x="510" y="62" width="9" height="4" fill="#3a85ad" opacity="0.55"/><rect x="550" y="62" width="9" height="4" fill="#3a85ad" opacity="0.55"/><rect x="590" y="62" width="9" height="4" fill="#3a85ad" opacity="0.55"/><rect x="630" y="62" width="9" height="4" fill="#3a85ad" opacity="0.55"/><rect x="90" y="88" width="9" height="4" fill="#3a85ad" opacity="0.55"/><rect x="130" y="88" width="9" height="4" fill="#3a85ad" opacity="0.55"/><rect x="170" y="88" width="9" height="4" fill="#3a85ad" opacity="0.55"/><rect x="210" y="88" width="9" height="4" fill="#3a85ad" opacity="0.55"/><rect x="250" y="88" width="9" height="4" fill="#3a85ad" opacity="0.55"/><rect x="290" y="88" width="9" height="4" fill="#3a85ad" opacity="0.55"/><rect x="330" y="88" width="9" height="4" fill="#3a85ad" opacity="0.55"/><rect x="370" y="88" width="9" height="4" fill="#3a85ad" opacity="0.55"/><rect x="410" y="88" width="9" height="4" fill="#3a85ad" opacity="0.55"/><rect x="450" y="88" width="9" height="4" fill="#3a85ad" opacity="0.55"/><rect x="490" y="88" width="9" height="4" fill="#3a85ad" opacity="0.55"/><rect x="530" y="88" width="9" height="4" fill="#3a85ad" opacity="0.55"/><rect x="570" y="88" width="9" height="4" fill="#3a85ad" opacity="0.55"/><rect x="610" y="88" width="9" height="4" fill="#3a85ad" opacity="0.55"/><rect x="650" y="88" width="9" height="4" fill="#3a85ad" opacity="0.55"/><rect x="70" y="114" width="9" height="4" fill="#3a85ad" opacity="0.55"/><rect x="110" y="114" width="9" height="4" fill="#3a85ad" opacity="0.55"/><rect x="150" y="114" width="9" height="4" fill="#3a85ad" opacity="0.55"/><rect x="190" y="114" width="9" height="4" fill="#3a85ad" opacity="0.55"/><rect x="230" y="114" width="9" height="4" fill="#3a85ad" opacity="0.55"/><rect x="270" y="114" width="9" height="4" fill="#3a85ad" opacity="0.55"/><rect x="310" y="114" width="9" height="4" fill="#3a85ad" opacity="0.55"/><rect x="350" y="114" width="9" height="4" fill="#3a85ad" opacity="0.55"/><rect x="390" y="114" width="9" height="4" fill="#3a85ad" opacity="0.55"/><rect x="430" y="114" width="9" height="4" fill="#3a85ad" opacity="0.55"/><rect x="470" y="114" width="9" height="4" fill="#3a85ad" opacity="0.55"/><rect x="510" y="114" width="9" height="4" fill="#3a85ad" opacity="0.55"/><rect x="550" y="114" width="9" height="4" fill="#3a85ad" opacity="0.55"/><rect x="590" y="114" width="9" height="4" fill="#3a85ad" opacity="0.55"/><rect x="630" y="114" width="9" height="4" fill="#3a85ad" opacity="0.55"/><rect x="90" y="140" width="9" height="4" fill="#3a85ad" opacity="0.55"/><rect x="130" y="140" width="9" height="4" fill="#3a85ad" opacity="0.55"/><rect x="170" y="140" width="9" height="4" fill="#3a85ad" opacity="0.55"/><rect x="210" y="140" width="9" height="4" fill="#3a85ad" opacity="0.55"/><rect x="250" y="140" width="9" height="4" fill="#3a85ad" opacity="0.55"/><rect x="290" y="140" width="9" height="4" fill="#3a85ad" opacity="0.55"/><rect x="330" y="140" width="9" height="4" fill="#3a85ad" opacity="0.55"/><rect x="370" y="140" width="9" height="4" fill="#3a85ad" opacity="0.55"/><rect x="410" y="140" width="9" height="4" fill="#3a85ad" opacity="0.55"/><rect x="450" y="140" width="9" height="4" fill="#3a85ad" opacity="0.55"/><rect x="490" y="140" width="9" height="4" fill="#3a85ad" opacity="0.55"/><rect x="530" y="140" width="9" height="4" fill="#3a85ad" opacity="0.55"/><rect x="570" y="140" width="9" height="4" fill="#3a85ad" opacity="0.55"/><rect x="610" y="140" width="9" height="4" fill="#3a85ad" opacity="0.55"/><rect x="650" y="140" width="9" height="4" fill="#3a85ad" opacity="0.55"/><rect x="70" y="166" width="9" height="4" fill="#3a85ad" opacity="0.55"/><rect x="110" y="166" width="9" height="4" fill="#3a85ad" opacity="0.55"/><rect x="150" y="166" width="9" height="4" fill="#3a85ad" opacity="0.55"/><rect x="190" y="166" width="9" height="4" fill="#3a85ad" opacity="0.55"/><rect x="230" y="166" width="9" height="4" fill="#3a85ad" opacity="0.55"/><rect x="270" y="166" width="9" height="4" fill="#3a85ad" opacity="0.55"/><rect x="310" y="166" width="9" height="4" fill="#3a85ad" opacity="0.55"/><rect x="350" y="166" width="9" height="4" fill="#3a85ad" opacity="0.55"/><rect x="390" y="166" width="9" height="4" fill="#3a85ad" opacity="0.55"/><rect x="430" y="166" width="9" height="4" fill="#3a85ad" opacity="0.55"/><rect x="470" y="166" width="9" height="4" fill="#3a85ad" opacity="0.55"/><rect x="510" y="166" width="9" height="4" fill="#3a85ad" opacity="0.55"/><rect x="550" y="166" width="9" height="4" fill="#3a85ad" opacity="0.55"/><rect x="590" y="166" width="9" height="4" fill="#3a85ad" opacity="0.55"/><rect x="630" y="166" width="9" height="4" fill="#3a85ad" opacity="0.55"/><rect x="90" y="192" width="9" height="4" fill="#3a85ad" opacity="0.55"/><rect x="130" y="192" width="9" height="4" fill="#3a85ad" opacity="0.55"/><rect x="170" y="192" width="9" height="4" fill="#3a85ad" opacity="0.55"/><rect x="210" y="192" width="9" height="4" fill="#3a85ad" opacity="0.55"/><rect x="250" y="192" width="9" height="4" fill="#3a85ad" opacity="0.55"/><rect x="290" y="192" width="9" height="4" fill="#3a85ad" opacity="0.55"/><rect x="330" y="192" width="9" height="4" fill="#3a85ad" opacity="0.55"/><rect x="370" y="192" width="9" height="4" fill="#3a85ad" opacity="0.55"/><rect x="410" y="192" width="9" height="4" fill="#3a85ad" opacity="0.55"/><rect x="450" y="192" width="9" height="4" fill="#3a85ad" opacity="0.55"/><rect x="490" y="192" width="9" height="4" fill="#3a85ad" opacity="0.55"/><rect x="530" y="192" width="9" height="4" fill="#3a85ad" opacity="0.55"/><rect x="570" y="192" width="9" height="4" fill="#3a85ad" opacity="0.55"/><rect x="610" y="192" width="9" height="4" fill="#3a85ad" opacity="0.55"/><rect x="650" y="192" width="9" height="4" fill="#3a85ad" opacity="0.55"/><rect x="70" y="218" width="9" height="4" fill="#3a85ad" opacity="0.55"/><rect x="110" y="218" width="9" height="4" fill="#3a85ad" opacity="0.55"/><rect x="150" y="218" width="9" height="4" fill="#3a85ad" opacity="0.55"/><rect x="190" y="218" width="9" height="4" fill="#3a85ad" opacity="0.55"/><rect x="230" y="218" width="9" height="4" fill="#3a85ad" opacity="0.55"/><rect x="270" y="218" width="9" height="4" fill="#3a85ad" opacity="0.55"/><rect x="310" y="218" width="9" height="4" fill="#3a85ad" opacity="0.55"/><rect x="350" y="218" width="9" height="4" fill="#3a85ad" opacity="0.55"/><rect x="390" y="218" width="9" height="4" fill="#3a85ad" opacity="0.55"/><rect x="430" y="218" width="9" height="4" fill="#3a85ad" opacity="0.55"/><rect x="470" y="218" width="9" height="4" fill="#3a85ad" opacity="0.55"/><rect x="510" y="218" width="9" height="4" fill="#3a85ad" opacity="0.55"/><rect x="550" y="218" width="9" height="4" fill="#3a85ad" opacity="0.55"/><rect x="590" y="218" width="9" height="4" fill="#3a85ad" opacity="0.55"/><rect x="630" y="218" width="9" height="4" fill="#3a85ad" opacity="0.55"/><rect x="90" y="244" width="9" height="4" fill="#3a85ad" opacity="0.55"/><rect x="130" y="244" width="9" height="4" fill="#3a85ad" opacity="0.55"/><rect x="170" y="244" width="9" height="4" fill="#3a85ad" opacity="0.55"/><rect x="210" y="244" width="9" height="4" fill="#3a85ad" opacity="0.55"/><rect x="250" y="244" width="9" height="4" fill="#3a85ad" opacity="0.55"/><rect x="290" y="244" width="9" height="4" fill="#3a85ad" opacity="0.55"/><rect x="330" y="244" width="9" height="4" fill="#3a85ad" opacity="0.55"/><rect x="370" y="244" width="9" height="4" fill="#3a85ad" opacity="0.55"/><rect x="410" y="244" width="9" height="4" fill="#3a85ad" opacity="0.55"/><rect x="450" y="244" width="9" height="4" fill="#3a85ad" opacity="0.55"/><rect x="490" y="244" width="9" height="4" fill="#3a85ad" opacity="0.55"/><rect x="530" y="244" width="9" height="4" fill="#3a85ad" opacity="0.55"/><rect x="570" y="244" width="9" height="4" fill="#3a85ad" opacity="0.55"/><rect x="610" y="244" width="9" height="4" fill="#3a85ad" opacity="0.55"/><rect x="650" y="244" width="9" height="4" fill="#3a85ad" opacity="0.55"/><rect x="70" y="270" width="9" height="4" fill="#3a85ad" opacity="0.55"/><rect x="110" y="270" width="9" height="4" fill="#3a85ad" opacity="0.55"/><rect x="150" y="270" width="9" height="4" fill="#3a85ad" opacity="0.55"/><rect x="190" y="270" width="9" height="4" fill="#3a85ad" opacity="0.55"/><rect x="230" y="270" width="9" height="4" fill="#3a85ad" opacity="0.55"/><rect x="270" y="270" width="9" height="4" fill="#3a85ad" opacity="0.55"/><rect x="310" y="270" width="9" height="4" fill="#3a85ad" opacity="0.55"/><rect x="350" y="270" width="9" height="4" fill="#3a85ad" opacity="0.55"/><rect x="390" y="270" width="9" height="4" fill="#3a85ad" opacity="0.55"/><rect x="430" y="270" width="9" height="4" fill="#3a85ad" opacity="0.55"/><rect x="470" y="270" width="9" height="4" fill="#3a85ad" opacity="0.55"/><rect x="510" y="270" width="9" height="4" fill="#3a85ad" opacity="0.55"/><rect x="550" y="270" width="9" height="4" fill="#3a85ad" opacity="0.55"/><rect x="590" y="270" width="9" height="4" fill="#3a85ad" opacity="0.55"/><rect x="630" y="270" width="9" height="4" fill="#3a85ad" opacity="0.55"/><rect x="90" y="296" width="9" height="4" fill="#3a85ad" opacity="0.55"/><rect x="130" y="296" width="9" height="4" fill="#3a85ad" opacity="0.55"/><rect x="170" y="296" width="9" height="4" fill="#3a85ad" opacity="0.55"/><rect x="210" y="296" width="9" height="4" fill="#3a85ad" opacity="0.55"/><rect x="250" y="296" width="9" height="4" fill="#3a85ad" opacity="0.55"/><rect x="290" y="296" width="9" height="4" fill="#3a85ad" opacity="0.55"/><rect x="330" y="296" width="9" height="4" fill="#3a85ad" opacity="0.55"/><rect x="370" y="296" width="9" height="4" fill="#3a85ad" opacity="0.55"/><rect x="410" y="296" width="9" height="4" fill="#3a85ad" opacity="0.55"/><rect x="450" y="296" width="9" height="4" fill="#3a85ad" opacity="0.55"/><rect x="490" y="296" width="9" height="4" fill="#3a85ad" opacity="0.55"/><rect x="530" y="296" width="9" height="4" fill="#3a85ad" opacity="0.55"/><rect x="570" y="296" width="9" height="4" fill="#3a85ad" opacity="0.55"/><rect x="610" y="296" width="9" height="4" fill="#3a85ad" opacity="0.55"/><rect x="650" y="296" width="9" height="4" fill="#3a85ad" opacity="0.55"/><rect x="70" y="322" width="9" height="4" fill="#3a85ad" opacity="0.55"/><rect x="110" y="322" width="9" height="4" fill="#3a85ad" opacity="0.55"/><rect x="150" y="322" width="9" height="4" fill="#3a85ad" opacity="0.55"/><rect x="190" y="322" width="9" height="4" fill="#3a85ad" opacity="0.55"/><rect x="230" y="322" width="9" height="4" fill="#3a85ad" opacity="0.55"/><rect x="270" y="322" width="9" height="4" fill="#3a85ad" opacity="0.55"/><rect x="310" y="322" width="9" height="4" fill="#3a85ad" opacity="0.55"/><rect x="350" y="322" width="9" height="4" fill="#3a85ad" opacity="0.55"/><rect x="390" y="322" width="9" height="4" fill="#3a85ad" opacity="0.55"/><rect x="430" y="322" width="9" height="4" fill="#3a85ad" opacity="0.55"/><rect x="470" y="322" width="9" height="4" fill="#3a85ad" opacity="0.55"/><rect x="510" y="322" width="9" height="4" fill="#3a85ad" opacity="0.55"/><rect x="550" y="322" width="9" height="4" fill="#3a85ad" opacity="0.55"/><rect x="590" y="322" width="9" height="4" fill="#3a85ad" opacity="0.55"/><rect x="630" y="322" width="9" height="4" fill="#3a85ad" opacity="0.55"/><rect x="90" y="348" width="9" height="4" fill="#3a85ad" opacity="0.55"/><rect x="130" y="348" width="9" height="4" fill="#3a85ad" opacity="0.55"/><rect x="170" y="348" width="9" height="4" fill="#3a85ad" opacity="0.55"/><rect x="210" y="348" width="9" height="4" fill="#3a85ad" opacity="0.55"/><rect x="250" y="348" width="9" height="4" fill="#3a85ad" opacity="0.55"/><rect x="290" y="348" width="9" height="4" fill="#3a85ad" opacity="0.55"/><rect x="330" y="348" width="9" height="4" fill="#3a85ad" opacity="0.55"/><rect x="370" y="348" width="9" height="4" fill="#3a85ad" opacity="0.55"/><rect x="410" y="348" width="9" height="4" fill="#3a85ad" opacity="0.55"/><rect x="450" y="348" width="9" height="4" fill="#3a85ad" opacity="0.55"/><rect x="490" y="348" width="9" height="4" fill="#3a85ad" opacity="0.55"/><rect x="530" y="348" width="9" height="4" fill="#3a85ad" opacity="0.55"/><rect x="570" y="348" width="9" height="4" fill="#3a85ad" opacity="0.55"/><rect x="610" y="348" width="9" height="4" fill="#3a85ad" opacity="0.55"/><rect x="650" y="348" width="9" height="4" fill="#3a85ad" opacity="0.55"/><rect x="70" y="374" width="9" height="4" fill="#3a85ad" opacity="0.55"/><rect x="110" y="374" width="9" height="4" fill="#3a85ad" opacity="0.55"/><rect x="150" y="374" width="9" height="4" fill="#3a85ad" opacity="0.55"/><rect x="190" y="374" width="9" height="4" fill="#3a85ad" opacity="0.55"/><rect x="230" y="374" width="9" height="4" fill="#3a85ad" opacity="0.55"/><rect x="270" y="374" width="9" height="4" fill="#3a85ad" opacity="0.55"/><rect x="310" y="374" width="9" height="4" fill="#3a85ad" opacity="0.55"/><rect x="350" y="374" width="9" height="4" fill="#3a85ad" opacity="0.55"/><rect x="390" y="374" width="9" height="4" fill="#3a85ad" opacity="0.55"/><rect x="430" y="374" width="9" height="4" fill="#3a85ad" opacity="0.55"/><rect x="470" y="374" width="9" height="4" fill="#3a85ad" opacity="0.55"/><rect x="510" y="374" width="9" height="4" fill="#3a85ad" opacity="0.55"/><rect x="550" y="374" width="9" height="4" fill="#3a85ad" opacity="0.55"/><rect x="590" y="374" width="9" height="4" fill="#3a85ad" opacity="0.55"/><rect x="630" y="374" width="9" height="4" fill="#3a85ad" opacity="0.55"/><rect x="90" y="400" width="9" height="4" fill="#3a85ad" opacity="0.55"/><rect x="130" y="400" width="9" height="4" fill="#3a85ad" opacity="0.55"/><rect x="170" y="400" width="9" height="4" fill="#3a85ad" opacity="0.55"/><rect x="210" y="400" width="9" height="4" fill="#3a85ad" opacity="0.55"/><rect x="250" y="400" width="9" height="4" fill="#3a85ad" opacity="0.55"/><rect x="290" y="400" width="9" height="4" fill="#3a85ad" opacity="0.55"/><rect x="330" y="400" width="9" height="4" fill="#3a85ad" opacity="0.55"/><rect x="370" y="400" width="9" height="4" fill="#3a85ad" opacity="0.55"/><rect x="410" y="400" width="9" height="4" fill="#3a85ad" opacity="0.55"/><rect x="450" y="400" width="9" height="4" fill="#3a85ad" opacity="0.55"/><rect x="490" y="400" width="9" height="4" fill="#3a85ad" opacity="0.55"/><rect x="530" y="400" width="9" height="4" fill="#3a85ad" opacity="0.55"/><rect x="570" y="400" width="9" height="4" fill="#3a85ad" opacity="0.55"/><rect x="610" y="400" width="9" height="4" fill="#3a85ad" opacity="0.55"/><rect x="650" y="400" width="9" height="4" fill="#3a85ad" opacity="0.55"/><rect x="70" y="426" width="9" height="4" fill="#3a85ad" opacity="0.55"/><rect x="110" y="426" width="9" height="4" fill="#3a85ad" opacity="0.55"/><rect x="150" y="426" width="9" height="4" fill="#3a85ad" opacity="0.55"/><rect x="190" y="426" width="9" height="4" fill="#3a85ad" opacity="0.55"/><rect x="230" y="426" width="9" height="4" fill="#3a85ad" opacity="0.55"/><rect x="270" y="426" width="9" height="4" fill="#3a85ad" opacity="0.55"/><rect x="310" y="426" width="9" height="4" fill="#3a85ad" opacity="0.55"/><rect x="350" y="426" width="9" height="4" fill="#3a85ad" opacity="0.55"/><rect x="390" y="426" width="9" height="4" fill="#3a85ad" opacity="0.55"/><rect x="430" y="426" width="9" height="4" fill="#3a85ad" opacity="0.55"/><rect x="470" y="426" width="9" height="4" fill="#3a85ad" opacity="0.55"/><rect x="510" y="426" width="9" height="4" fill="#3a85ad" opacity="0.55"/><rect x="550" y="426" width="9" height="4" fill="#3a85ad" opacity="0.55"/><rect x="590" y="426" width="9" height="4" fill="#3a85ad" opacity="0.55"/><rect x="630" y="426" width="9" height="4" fill="#3a85ad" opacity="0.55"/><rect x="0" y="0" width="46" height="450" fill="#c2a875"/><rect x="41" y="0" width="5" height="12" fill="#9c855a"/><rect x="6" y="6" width="34" height="4" fill="#a89162"/><rect x="41" y="22" width="5" height="12" fill="#9c855a"/><rect x="6" y="28" width="34" height="4" fill="#a89162"/><rect x="41" y="44" width="5" height="12" fill="#9c855a"/><rect x="6" y="50" width="34" height="4" fill="#a89162"/><rect x="41" y="66" width="5" height="12" fill="#9c855a"/><rect x="6" y="72" width="34" height="4" fill="#a89162"/><rect x="41" y="88" width="5" height="12" fill="#9c855a"/><rect x="6" y="94" width="34" height="4" fill="#a89162"/><rect x="41" y="110" width="5" height="12" fill="#9c855a"/><rect x="6" y="116" width="34" height="4" fill="#a89162"/><rect x="41" y="132" width="5" height="12" fill="#9c855a"/><rect x="6" y="138" width="34" height="4" fill="#a89162"/><rect x="41" y="154" width="5" height="12" fill="#9c855a"/><rect x="6" y="160" width="34" height="4" fill="#a89162"/><rect x="41" y="176" width="5" height="12" fill="#9c855a"/><rect x="6" y="182" width="34" height="4" fill="#a89162"/><rect x="41" y="198" width="5" height="12" fill="#9c855a"/><rect x="6" y="204" width="34" height="4" fill="#a89162"/><rect x="41" y="220" width="5" height="12" fill="#9c855a"/><rect x="6" y="226" width="34" height="4" fill="#a89162"/><rect x="41" y="242" width="5" height="12" fill="#9c855a"/><rect x="6" y="248" width="34" height="4" fill="#a89162"/><rect x="41" y="264" width="5" height="12" fill="#9c855a"/><rect x="6" y="270" width="34" height="4" fill="#a89162"/><rect x="41" y="286" width="5" height="12" fill="#9c855a"/><rect x="6" y="292" width="34" height="4" fill="#a89162"/><rect x="41" y="308" width="5" height="12" fill="#9c855a"/><rect x="6" y="314" width="34" height="4" fill="#a89162"/><rect x="41" y="330" width="5" height="12" fill="#9c855a"/><rect x="6" y="336" width="34" height="4" fill="#a89162"/><rect x="41" y="352" width="5" height="12" fill="#9c855a"/><rect x="6" y="358" width="34" height="4" fill="#a89162"/><rect x="41" y="374" width="5" height="12" fill="#9c855a"/><rect x="6" y="380" width="34" height="4" fill="#a89162"/><rect x="41" y="396" width="5" height="12" fill="#9c855a"/><rect x="6" y="402" width="34" height="4" fill="#a89162"/><rect x="41" y="418" width="5" height="12" fill="#9c855a"/><rect x="6" y="424" width="34" height="4" fill="#a89162"/><rect x="41" y="440" width="5" height="12" fill="#9c855a"/><rect x="6" y="446" width="34" height="4" fill="#a89162"/><rect x="674" y="0" width="46" height="450" fill="#c2a875"/><rect x="674" y="0" width="5" height="12" fill="#9c855a"/><rect x="680" y="6" width="34" height="4" fill="#a89162"/><rect x="674" y="22" width="5" height="12" fill="#9c855a"/><rect x="680" y="28" width="34" height="4" fill="#a89162"/><rect x="674" y="44" width="5" height="12" fill="#9c855a"/><rect x="680" y="50" width="34" height="4" fill="#a89162"/><rect x="674" y="66" width="5" height="12" fill="#9c855a"/><rect x="680" y="72" width="34" height="4" fill="#a89162"/><rect x="674" y="88" width="5" height="12" fill="#9c855a"/><rect x="680" y="94" width="34" height="4" fill="#a89162"/><rect x="674" y="110" width="5" height="12" fill="#9c855a"/><rect x="680" y="116" width="34" height="4" fill="#a89162"/><rect x="674" y="132" width="5" height="12" fill="#9c855a"/><rect x="680" y="138" width="34" height="4" fill="#a89162"/><rect x="674" y="154" width="5" height="12" fill="#9c855a"/><rect x="680" y="160" width="34" height="4" fill="#a89162"/><rect x="674" y="176" width="5" height="12" fill="#9c855a"/><rect x="680" y="182" width="34" height="4" fill="#a89162"/><rect x="674" y="198" width="5" height="12" fill="#9c855a"/><rect x="680" y="204" width="34" height="4" fill="#a89162"/><rect x="674" y="220" width="5" height="12" fill="#9c855a"/><rect x="680" y="226" width="34" height="4" fill="#a89162"/><rect x="674" y="242" width="5" height="12" fill="#9c855a"/><rect x="680" y="248" width="34" height="4" fill="#a89162"/><rect x="674" y="264" width="5" height="12" fill="#9c855a"/><rect x="680" y="270" width="34" height="4" fill="#a89162"/><rect x="674" y="286" width="5" height="12" fill="#9c855a"/><rect x="680" y="292" width="34" height="4" fill="#a89162"/><rect x="674" y="308" width="5" height="12" fill="#9c855a"/><rect x="680" y="314" width="34" height="4" fill="#a89162"/><rect x="674" y="330" width="5" height="12" fill="#9c855a"/><rect x="680" y="336" width="34" height="4" fill="#a89162"/><rect x="674" y="352" width="5" height="12" fill="#9c855a"/><rect x="680" y="358" width="34" height="4" fill="#a89162"/><rect x="674" y="374" width="5" height="12" fill="#9c855a"/><rect x="680" y="380" width="34" height="4" fill="#a89162"/><rect x="674" y="396" width="5" height="12" fill="#9c855a"/><rect x="680" y="402" width="34" height="4" fill="#a89162"/><rect x="674" y="418" width="5" height="12" fill="#9c855a"/><rect x="680" y="424" width="34" height="4" fill="#a89162"/><rect x="674" y="440" width="5" height="12" fill="#9c855a"/><rect x="680" y="446" width="34" height="4" fill="#a89162"/><rect x="317.5" y="410.5" width="25.5" height="25.5" fill="#bcd8e6"/><rect x="377.0" y="410.5" width="25.5" height="25.5" fill="#bcd8e6"/><rect x="343.0" y="419.0" width="34.0" height="17.0" fill="#e8f6ff"/><rect x="317.5" y="206.5" width="85.0" height="187.0" fill="#9c2a16"/><rect x="309.0" y="240.5" width="102.0" height="119.0" fill="#9c2a16"/><rect x="326.0" y="215.0" width="68.0" height="170.0" fill="#3f7d3a"/><rect x="334.5" y="215.0" width="51.0" height="170.0" fill="#4f9b46"/><rect x="351.5" y="223.5" width="17.0" height="153.0" fill="#356b30"/><rect x="334.5" y="249.0" width="51.0" height="8.5" fill="#356b30"/><rect x="334.5" y="291.5" width="51.0" height="8.5" fill="#356b30"/><rect x="334.5" y="334.0" width="51.0" height="8.5" fill="#356b30"/><rect x="351.5" y="181.0" width="17.0" height="34.0" fill="#caa24a"/><rect x="326.0" y="376.5" width="68.0" height="34.0" fill="#e9eef2"/><rect x="334.5" y="385.0" width="51.0" height="17.0" fill="#b9c4cc"/><rect x="343.0" y="359.5" width="34.0" height="17.0" fill="#cfd8de"/><rect x="225.8" y="86.4" width="8.4" height="16.8" fill="#ffce3a"/><rect x="221.6" y="99.0" width="16.8" height="37.8" fill="#c9ced6"/><rect x="225.8" y="99.0" width="8.4" height="37.8" fill="#eef2f6"/><rect x="217.4" y="124.2" width="8.4" height="16.8" fill="#8a9099"/><rect x="234.2" y="124.2" width="8.4" height="16.8" fill="#8a9099"/><rect x="221.6" y="136.8" width="16.8" height="12.6" fill="#ff7a3a"/><rect x="225.8" y="141.0" width="8.4" height="12.6" fill="#ffd23a"/><rect x="438.0" y="130.0" width="16.0" height="8.0" fill="#5a6270"/><rect x="486.0" y="130.0" width="16.0" height="8.0" fill="#5a6270"/><rect x="442.0" y="126.0" width="12.0" height="12.0" fill="#39414f"/><rect x="486.0" y="126.0" width="12.0" height="12.0" fill="#39414f"/><rect x="458.0" y="138.0" width="24.0" height="24.0" fill="#2b3340"/><rect x="462.0" y="142.0" width="16.0" height="16.0" fill="#3c4757"/><rect x="466.0" y="146.0" width="8.0" height="8.0" fill="#ff4d4d"/><rect x="462.0" y="162.0" width="16.0" height="8.0" fill="#1e2530"/><rect x="292.0" y="176.0" width="16.0" height="12.0" fill="#39414f"/><rect x="296.0" y="176.0" width="8.0" height="12.0" fill="#5a6270"/><rect x="292.0" y="184.0" width="16.0" height="44.0" fill="#4a5360"/><rect x="296.0" y="184.0" width="8.0" height="44.0" fill="#5f6a78"/><rect x="296.0" y="196.0" width="8.0" height="4.0" fill="#2b3340"/><rect x="296.0" y="208.0" width="8.0" height="4.0" fill="#2b3340"/><rect x="288.0" y="224.0" width="8.0" height="12.0" fill="#39414f"/><rect x="304.0" y="224.0" width="8.0" height="12.0" fill="#39414f"/><rect x="296.0" y="232.0" width="8.0" height="12.0" fill="#9fd6e6"/><rect x="539.0" y="231.1" width="42.0" height="37.8" fill="#6b5a44"/><rect x="534.8" y="239.5" width="50.4" height="25.2" fill="#6b5a44"/><rect x="543.2" y="226.9" width="33.6" height="12.6" fill="#8a755a"/><rect x="547.4" y="231.1" width="25.2" height="16.8" fill="#9c8868"/><rect x="539.0" y="260.5" width="42.0" height="12.6" fill="#574631"/><rect x="551.6" y="239.5" width="12.6" height="8.4" fill="#b6a585"/><g transform="translate(24,392)"><rect width="170" height="40" rx="8" fill="#FF6A52" stroke="#10131c" stroke-width="4"/><text x="85" y="27" font-family="sans-serif" font-weight="900" font-size="18" fill="#10131c" text-anchor="middle">よけろ！</text></g></svg>