<svg xmlns="http://www.w3.org/2000/svg" viewBox="0 0 720 450" width="720" height="450"><defs><linearGradient id="sg" x1="0" y1="0" x2="1" y2="1"><stop offset="0" stop-color="#14241A"/><stop offset="1" stop-color="#0E1A14"/></linearGradient></defs><rect width="720" height="450" fill="url(#sg)"/><g opacity="0.05" stroke="#ffffff" stroke-width="1"><line x1="0" y1="0" x2="0" y2="450"/><line x1="36" y1="0" x2="36" y2="450"/><line x1="72" y1="0" x2="72" y2="450"/><line x1="108" y1="0" x2="108" y2="450"/><line x1="144" y1="0" x2="144" y2="450"/><line x1="180" y1="0" x2="180" y2="450"/><line x1="216" y1="0" x2="216" y2="450"/><line x1="252" y1="0" x2="252" y2="450"/><line x1="288" y1="0" x2="288" y2="450"/><line x1="324" y1="0" x2="324" y2="450"/><line x1="360" y1="0" x2="360" y2="450"/><line x1="396" y1="0" x2="396" y2="450"/><line x1="432" y1="0" x2="432" y2="450"/><line x1="468" y1="0" x2="468" y2="450"/><line x1="504" y1="0" x2="504" y2="450"/><line x1="540" y1="0" x2="540" y2="450"/><line x1="576" y1="0" x2="576" y2="450"/><line x1="612" y1="0" x2="612" y2="450"/><line x1="648" y1="0" x2="648" y2="450"/><line x1="684" y1="0" x2="684" y2="450"/><line x1="720" y1="0" x2="720" y2="450"/><line x1="0" y1="0" x2="720" y2="0"/><line x1="0" y1="36" x2="720" y2="36"/><line x1="0" y1="72" x2="720" y2="72"/><line x1="0" y1="108" x2="720" y2="108"/><line x1="0" y1="144" x2="720" y2="144"/><line x1="0" y1="180" x2="720" y2="180"/><line x1="0" y1="216" x2="720" y2="216"/><line x1="0" y1="252" x2="720" y2="252"/><line x1="0" y1="288" x2="720" y2="288"/><line x1="0" y1="324" x2="720" y2="324"/><line x1="0" y1="360" x2="720" y2="360"/><line x1="0" y1="396" x2="720" y2="396"/><line x1="0" y1="432" x2="720" y2="432"/></g><g><rect x="470" y="300" width="58" height="70" fill="#5FD08A" opacity="0.9"/><polygon points="464,300 499,274 534,300" fill="#5FD08A"/><rect x="560" y="250" width="58" height="78" fill="#FFD23F" opacity="0.9"/><polygon points="554,250 589,224 624,250" fill="#FFD23F"/><rect x="650" y="310" width="58" height="86" fill="#FF4D6D" opacity="0.9"/><polygon points="644,310 679,284 714,310" fill="#FF4D6D"/><rect x="600" y="360" width="58" height="94" fill="#7BDFF2" opacity="0.9"/><polygon points="594,360 629,334 664,360" fill="#7BDFF2"/><rect x="510" y="360" width="58" height="102" fill="#5FD08A" opacity="0.9"/><polygon points="504,360 539,334 574,360" fill="#5FD08A"/></g><rect x="24" y="24" width="120" height="30" rx="8" fill="#000" opacity="0.35"/><text x="38" y="44" font-family="Courier New, monospace" font-size="15" fill="#5FD08A">SCORE</text><text x="24" y="428" font-family="Courier New, monospace" font-size="13" fill="#ffffff" opacity="0.75">TURN 4 / 10</text></svg>