<svg xmlns="http://www.w3.org/2000/svg" viewBox="0 0 720 450" width="720" height="450"><rect width="720" height="450" fill="#86D6EE"/><defs><pattern id="ht" width="20" height="20" patternUnits="userSpaceOnUse"><circle cx="4" cy="4" r="2.2" fill="#2D2640" opacity="0.1"/></pattern></defs><rect width="720" height="450" fill="url(#ht)"/><g transform="translate(-40,-20) scale(0.9)"><g><ellipse cx="400" cy="250" rx="120" ry="70" fill="#FFC83D" stroke="#2D2640" stroke-width="7" stroke-linejoin="round" stroke-linecap="round"/><rect x="382" y="146" width="44" height="46" rx="10" fill="#FFC83D" stroke="#2D2640" stroke-width="7" stroke-linejoin="round" stroke-linecap="round"/><circle cx="434" cy="250" r="34" fill="#57C4F0" stroke="#2D2640" stroke-width="7" stroke-linejoin="round" stroke-linecap="round"/><g><circle cx="419.7" cy="241.8" r="7.700000000000001" fill="#fff" stroke="#2D2640" stroke-width="4" stroke-linejoin="round" stroke-linecap="round"/><circle cx="421.34999999999997" cy="242.9" r="3.2340000000000004" fill="#2D2640"/><circle cx="448.3" cy="241.8" r="7.700000000000001" fill="#fff" stroke="#2D2640" stroke-width="4" stroke-linejoin="round" stroke-linecap="round"/><circle cx="449.95" cy="242.9" r="3.2340000000000004" fill="#2D2640"/><ellipse cx="434" cy="260.5" rx="6.6000000000000005" ry="8.25" fill="#2D2640"/></g><circle cx="550" cy="210" r="16" fill="#fff" stroke="#2D2640" stroke-width="4" stroke-linejoin="round" stroke-linecap="round" opacity="0.9"/><circle cx="585" cy="172" r="11" fill="#fff" stroke="#2D2640" stroke-width="4" stroke-linejoin="round" stroke-linecap="round" opacity="0.9"/><circle cx="550" cy="154" r="8" fill="#fff" stroke="#2D2640" stroke-width="4" stroke-linejoin="round" stroke-linecap="round" opacity="0.9"/></g></g><g transform="translate(28,26)"><rect width="118" height="40" rx="20" fill="#fff" stroke="#2D2640" stroke-width="4" stroke-linejoin="round" stroke-linecap="round"/><path d="M26 14 a8 8 0 0 1 14 0 a8 8 0 0 1 14 0 q0 10 -14 18 q-14 -8 -14 -18 Z" fill="#FF6A52"/><text x="74" y="27" font-family="Arial Black,sans-serif" font-weight="900" font-size="15" fill="#2D2640">x3</text></g><g transform="translate(24,392) rotate(-3)"><rect width="150" height="40" rx="20" fill="#8E7BFF" stroke="#2D2640" stroke-width="4" stroke-linejoin="round" stroke-linecap="round"/><text x="75" y="27" font-family="Arial Black,sans-serif" font-weight="900" font-size="16" fill="#2D2640" text-anchor="middle">240m</text></g></svg>