<svg xmlns="http://www.w3.org/2000/svg" viewBox="0 0 720 450" width="720" height="450"><rect width="720" height="450" fill="#FFEFB0"/><defs><pattern id="ht" width="20" height="20" patternUnits="userSpaceOnUse"><circle cx="4" cy="4" r="2.2" fill="#2D2640" opacity="0.1"/></pattern></defs><rect width="720" height="450" fill="url(#ht)"/><g transform="translate(-40,-20) scale(0.9)"><g><rect x="340" y="320" width="120" height="60" rx="14" fill="#57C4F0" stroke="#2D2640" stroke-width="7" stroke-linejoin="round" stroke-linecap="round"/><rect x="348" y="256" width="120" height="60" rx="14" fill="#FF6FA5" stroke="#2D2640" stroke-width="7" stroke-linejoin="round" stroke-linecap="round"/><rect x="356" y="192" width="120" height="60" rx="14" fill="#43D8A0" stroke="#2D2640" stroke-width="7" stroke-linejoin="round" stroke-linecap="round"/><g><circle cx="388.5" cy="201.0" r="10.5" fill="#fff" stroke="#2D2640" stroke-width="4" stroke-linejoin="round" stroke-linecap="round"/><circle cx="390.75" cy="202.5" r="4.41" fill="#2D2640"/><circle cx="427.5" cy="201.0" r="10.5" fill="#fff" stroke="#2D2640" stroke-width="4" stroke-linejoin="round" stroke-linecap="round"/><circle cx="429.75" cy="202.5" r="4.41" fill="#2D2640"/><path d="M385.5 217.5 Q408 246.0 430.5 217.5 Z" fill="#2D2640"/><path d="M385.5 217.5 Q408 226.5 430.5 217.5" fill="#fff"/></g><path d="M520 162 L525.4 174.6 L538 180 L525.4 185.4 L520 198 L514.6 185.4 L502 180 L514.6 174.6 Z" fill="#FFC83D" stroke="#2D2640" stroke-width="4" stroke-linejoin="round" stroke-linecap="round"/></g></g><g transform="translate(28,26)"><rect width="118" height="40" rx="20" fill="#fff" stroke="#2D2640" stroke-width="4" stroke-linejoin="round" stroke-linecap="round"/><path d="M26 14 a8 8 0 0 1 14 0 a8 8 0 0 1 14 0 q0 10 -14 18 q-14 -8 -14 -18 Z" fill="#FF6A52"/><text x="74" y="27" font-family="Arial Black,sans-serif" font-weight="900" font-size="15" fill="#2D2640">x3</text></g><g transform="translate(24,392) rotate(-3)"><rect width="150" height="40" rx="20" fill="#FF6FA5" stroke="#2D2640" stroke-width="4" stroke-linejoin="round" stroke-linecap="round"/><text x="75" y="27" font-family="Arial Black,sans-serif" font-weight="900" font-size="16" fill="#2D2640" text-anchor="middle">CHAIN x3</text></g></svg>