<svg xmlns="http://www.w3.org/2000/svg" viewBox="0 0 720 450" width="720" height="450"><rect width="720" height="450" fill="#FFC2D6"/><defs><pattern id="ht" width="20" height="20" patternUnits="userSpaceOnUse"><circle cx="4" cy="4" r="2.2" fill="#2D2640" opacity="0.1"/></pattern></defs><rect width="720" height="450" fill="url(#ht)"/><g transform="translate(-40,-20) scale(0.9)"><g font-family="Arial Black, sans-serif" font-weight="900"><rect x="250" y="200" width="92" height="92" rx="16" fill="#FF6FA5" stroke="#2D2640" stroke-width="7" stroke-linejoin="round" stroke-linecap="round"/><text x="296" y="266" font-size="56" fill="#2D2640" text-anchor="middle">W</text><rect x="358" y="212" width="92" height="92" rx="16" fill="#FFC83D" stroke="#2D2640" stroke-width="7" stroke-linejoin="round" stroke-linecap="round"/><text x="404" y="278" font-size="56" fill="#2D2640" text-anchor="middle">O</text><rect x="466" y="200" width="92" height="92" rx="16" fill="#57C4F0" stroke="#2D2640" stroke-width="7" stroke-linejoin="round" stroke-linecap="round"/><text x="512" y="266" font-size="56" fill="#2D2640" text-anchor="middle">W</text><g><circle cx="447.0" cy="344.0" r="7.0" fill="#fff" stroke="#2D2640" stroke-width="4" stroke-linejoin="round" stroke-linecap="round"/><circle cx="448.5" cy="345.0" r="2.94" fill="#2D2640"/><circle cx="473.0" cy="344.0" r="7.0" fill="#fff" stroke="#2D2640" stroke-width="4" stroke-linejoin="round" stroke-linecap="round"/><circle cx="474.5" cy="345.0" r="2.94" fill="#2D2640"/><path d="M445.0 355.0 Q460 374.0 475.0 355.0 Z" fill="#2D2640"/><path d="M445.0 355.0 Q460 361.0 475.0 355.0" fill="#fff"/></g></g></g><g transform="translate(28,26)"><rect width="118" height="40" rx="20" fill="#fff" stroke="#2D2640" stroke-width="4" stroke-linejoin="round" stroke-linecap="round"/><path d="M26 14 a8 8 0 0 1 14 0 a8 8 0 0 1 14 0 q0 10 -14 18 q-14 -8 -14 -18 Z" fill="#FF6A52"/><text x="74" y="27" font-family="Arial Black,sans-serif" font-weight="900" font-size="15" fill="#2D2640">x3</text></g><g transform="translate(24,392) rotate(-3)"><rect width="150" height="40" rx="20" fill="#43D8A0" stroke="#2D2640" stroke-width="4" stroke-linejoin="round" stroke-linecap="round"/><text x="75" y="27" font-family="Arial Black,sans-serif" font-weight="900" font-size="16" fill="#2D2640" text-anchor="middle">WORD!</text></g></svg>