<svg xmlns="http://www.w3.org/2000/svg" viewBox="0 0 720 450" width="720" height="450"><defs><linearGradient id="sg" x1="0" y1="0" x2="1" y2="1"><stop offset="0" stop-color="#2A1726"/><stop offset="1" stop-color="#160E22"/></linearGradient></defs><rect width="720" height="450" fill="url(#sg)"/><g opacity="0.05" stroke="#ffffff" stroke-width="1"><line x1="0" y1="0" x2="0" y2="450"/><line x1="36" y1="0" x2="36" y2="450"/><line x1="72" y1="0" x2="72" y2="450"/><line x1="108" y1="0" x2="108" y2="450"/><line x1="144" y1="0" x2="144" y2="450"/><line x1="180" y1="0" x2="180" y2="450"/><line x1="216" y1="0" x2="216" y2="450"/><line x1="252" y1="0" x2="252" y2="450"/><line x1="288" y1="0" x2="288" y2="450"/><line x1="324" y1="0" x2="324" y2="450"/><line x1="360" y1="0" x2="360" y2="450"/><line x1="396" y1="0" x2="396" y2="450"/><line x1="432" y1="0" x2="432" y2="450"/><line x1="468" y1="0" x2="468" y2="450"/><line x1="504" y1="0" x2="504" y2="450"/><line x1="540" y1="0" x2="540" y2="450"/><line x1="576" y1="0" x2="576" y2="450"/><line x1="612" y1="0" x2="612" y2="450"/><line x1="648" y1="0" x2="648" y2="450"/><line x1="684" y1="0" x2="684" y2="450"/><line x1="720" y1="0" x2="720" y2="450"/><line x1="0" y1="0" x2="720" y2="0"/><line x1="0" y1="36" x2="720" y2="36"/><line x1="0" y1="72" x2="720" y2="72"/><line x1="0" y1="108" x2="720" y2="108"/><line x1="0" y1="144" x2="720" y2="144"/><line x1="0" y1="180" x2="720" y2="180"/><line x1="0" y1="216" x2="720" y2="216"/><line x1="0" y1="252" x2="720" y2="252"/><line x1="0" y1="288" x2="720" y2="288"/><line x1="0" y1="324" x2="720" y2="324"/><line x1="0" y1="360" x2="720" y2="360"/><line x1="0" y1="396" x2="720" y2="396"/><line x1="0" y1="432" x2="720" y2="432"/></g><g font-family="Arial Black, Arial, sans-serif" font-weight="900"><rect x="470" y="130" width="64" height="64" rx="11" fill="#FF7AC2" opacity="0.92"/><text x="502" y="176" font-size="38" fill="#16131F" text-anchor="middle">W</text><rect x="548" y="160" width="64" height="64" rx="11" fill="#FFD23F" opacity="0.92"/><text x="580" y="206" font-size="38" fill="#16131F" text-anchor="middle">O</text><rect x="626" y="130" width="64" height="64" rx="11" fill="#FF4D6D" opacity="0.92"/><text x="658" y="176" font-size="38" fill="#16131F" text-anchor="middle">R</text><rect x="704" y="160" width="64" height="64" rx="11" fill="#7BDFF2" opacity="0.92"/><text x="736" y="206" font-size="38" fill="#16131F" text-anchor="middle">D</text></g><rect x="24" y="24" width="120" height="30" rx="8" fill="#000" opacity="0.35"/><text x="38" y="44" font-family="Courier New, monospace" font-size="15" fill="#FF7AC2">SCORE</text><text x="24" y="428" font-family="Courier New, monospace" font-size="13" fill="#ffffff" opacity="0.75">WORD FOUND!</text></svg>