<svg xmlns="http://www.w3.org/2000/svg" viewBox="0 0 720 450" width="720" height="450" shape-rendering="crispEdges"><rect width="720" height="450" fill="#246b95"/><rect x="70" y="10" width="9" height="4" fill="#3a85ad" opacity="0.55"/><rect x="110" y="10" width="9" height="4" fill="#3a85ad" opacity="0.55"/><rect x="150" y="10" width="9" height="4" fill="#3a85ad" opacity="0.55"/><rect x="190" y="10" width="9" height="4" fill="#3a85ad" opacity="0.55"/><rect x="230" y="10" width="9" height="4" fill="#3a85ad" opacity="0.55"/><rect x="270" y="10" width="9" height="4" fill="#3a85ad" opacity="0.55"/><rect x="310" y="10" width="9" height="4" fill="#3a85ad" opacity="0.55"/><rect x="350" y="10" width="9" height="4" fill="#3a85ad" opacity="0.55"/><rect x="390" y="10" width="9" height="4" fill="#3a85ad" opacity="0.55"/><rect x="430" y="10" width="9" height="4" fill="#3a85ad" opacity="0.55"/><rect x="470" y="10" width="9" height="4" fill="#3a85ad" opacity="0.55"/><rect x="510" y="10" width="9" height="4" fill="#3a85ad" opacity="0.55"/><rect x="550" y="10" width="9" height="4" fill="#3a85ad" opacity="0.55"/><rect x="590" y="10" width="9" height="4" fill="#3a85ad" opacity="0.55"/><rect x="630" y="10" width="9" height="4" fill="#3a85ad" opacity="0.55"/><rect x="90" y="36" width="9" height="4" fill="#3a85ad" opacity="0.55"/><rect x="130" y="36" width="9" height="4" fill="#3a85ad" opacity="0.55"/><rect x="170" y="36" width="9" height="4" fill="#3a85ad" opacity="0.55"/><rect x="210" y="36" width="9" height="4" fill="#3a85ad" opacity="0.55"/><rect x="250" y="36" width="9" height="4" fill="#3a85ad" opacity="0.55"/><rect x="290" y="36" width="9" height="4" fill="#3a85ad" opacity="0.55"/><rect x="330" y="36" width="9" height="4" fill="#3a85ad" opacity="0.55"/><rect x="370" y="36" width="9" height="4" fill="#3a85ad" opacity="0.55"/><rect x="410" y="36" width="9" height="4" fill="#3a85ad" opacity="0.55"/><rect x="450" y="36" width="9" height="4" fill="#3a85ad" opacity="0.55"/><rect x="490" y="36" width="9" height="4" fill="#3a85ad" opacity="0.55"/><rect x="530" y="36" width="9" height="4" fill="#3a85ad" opacity="0.55"/><rect x="570" y="36" width="9" height="4" fill="#3a85ad" opacity="0.55"/><rect x="610" y="36" width="9" height="4" fill="#3a85ad" opacity="0.55"/><rect x="650" y="36" width="9" height="4" fill="#3a85ad" opacity="0.55"/><rect x="70" y="62" width="9" height="4" fill="#3a85ad" opacity="0.55"/><rect x="110" y="62" width="9" height="4" fill="#3a85ad" opacity="0.55"/><rect x="150" y="62" width="9" height="4" fill="#3a85ad" opacity="0.55"/><rect x="190" y="62" width="9" height="4" fill="#3a85ad" opacity="0.55"/><rect x="230" y="62" width="9" height="4" fill="#3a85ad" opacity="0.55"/><rect x="270" y="62" width="9" height="4" fill="#3a85ad" opacity="0.55"/><rect x="310" y="62" width="9" height="4" fill="#3a85ad" opacity="0.55"/><rect x="350" y="62" width="9" height="4" fill="#3a85ad" opacity="0.55"/><rect x="390" y="62" width="9" height="4" fill="#3a85ad" opacity="0.55"/><rect x="430" y="62" width="9" height="4" fill="#3a85ad" opacity="0.55"/><rect x="470" y="62" width="9" height="4" fill="#3a85ad" opacity="0.55"/><rect x="510" y="62" width="9" height="4" fill="#3a85ad" opacity="0.55"/><rect x="550" y="62" width="9" height="4" fill="#3a85ad" opacity="0.55"/><rect x="590" y="62" width="9" height="4" fill="#3a85ad" opacity="0.55"/><rect x="630" y="62" width="9" height="4" fill="#3a85ad" opacity="0.55"/><rect x="90" y="88" width="9" height="4" fill="#3a85ad" opacity="0.55"/><rect x="130" y="88" width="9" height="4" fill="#3a85ad" opacity="0.55"/><rect x="170" y="88" width="9" height="4" fill="#3a85ad" opacity="0.55"/><rect x="210" y="88" width="9" height="4" fill="#3a85ad" opacity="0.55"/><rect x="250" y="88" width="9" height="4" fill="#3a85ad" opacity="0.55"/><rect x="290" y="88" width="9" height="4" fill="#3a85ad" opacity="0.55"/><rect x="330" y="88" width="9" height="4" fill="#3a85ad" opacity="0.55"/><rect x="370" y="88" width="9" height="4" fill="#3a85ad" opacity="0.55"/><rect x="410" y="88" width="9" height="4" fill="#3a85ad" opacity="0.55"/><rect x="450" y="88" width="9" height="4" fill="#3a85ad" opacity="0.55"/><rect x="490" y="88" width="9" height="4" fill="#3a85ad" opacity="0.55"/><rect x="530" y="88" width="9" height="4" fill="#3a85ad" opacity="0.55"/><rect x="570" y="88" width="9" height="4" fill="#3a85ad" opacity="0.55"/><rect x="610" y="88" width="9" height="4" fill="#3a85ad" opacity="0.55"/><rect x="650" y="88" width="9" height="4" fill="#3a85ad" opacity="0.55"/><rect x="70" y="114" width="9" height="4" fill="#3a85ad" opacity="0.55"/><rect x="110" y="114" width="9" height="4" fill="#3a85ad" opacity="0.55"/><rect x="150" y="114" width="9" height="4" fill="#3a85ad" opacity="0.55"/><rect x="190" y="114" width="9" height="4" fill="#3a85ad" opacity="0.55"/><rect x="230" y="114" width="9" height="4" fill="#3a85ad" opacity="0.55"/><rect x="270" y="114" width="9" height="4" fill="#3a85ad" opacity="0.55"/><rect x="310" y="114" width="9" height="4" fill="#3a85ad" opacity="0.55"/><rect x="350" y="114" width="9" height="4" fill="#3a85ad" opacity="0.55"/><rect x="390" y="114" width="9" height="4" fill="#3a85ad" opacity="0.55"/><rect x="430" y="114" width="9" height="4" fill="#3a85ad" opacity="0.55"/><rect x="470" y="114" width="9" height="4" fill="#3a85ad" opacity="0.55"/><rect x="510" y="114" width="9" height="4" fill="#3a85ad" opacity="0.55"/><rect x="550" y="114" width="9" height="4" fill="#3a85ad" opacity="0.55"/><rect x="590" y="114" width="9" height="4" fill="#3a85ad" opacity="0.55"/><rect x="630" y="114" width="9" height="4" fill="#3a85ad" opacity="0.55"/><rect x="90" y="140" width="9" height="4" fill="#3a85ad" opacity="0.55"/><rect x="130" y="140" width="9" height="4" fill="#3a85ad" opacity="0.55"/><rect x="170" y="140" width="9" height="4" fill="#3a85ad" opacity="0.55"/><rect x="210" y="140" width="9" height="4" fill="#3a85ad" opacity="0.55"/><rect x="250" y="140" width="9" height="4" fill="#3a85ad" opacity="0.55"/><rect x="290" y="140" width="9" height="4" fill="#3a85ad" opacity="0.55"/><rect x="330" y="140" width="9" height="4" fill="#3a85ad" opacity="0.55"/><rect x="370" y="140" width="9" height="4" fill="#3a85ad" opacity="0.55"/><rect x="410" y="140" width="9" height="4" fill="#3a85ad" opacity="0.55"/><rect x="450" y="140" width="9" height="4" fill="#3a85ad" opacity="0.55"/><rect x="490" y="140" width="9" height="4" fill="#3a85ad" opacity="0.55"/><rect x="530" y="140" width="9" height="4" fill="#3a85ad" opacity="0.55"/><rect x="570" y="140" width="9" height="4" fill="#3a85ad" opacity="0.55"/><rect x="610" y="140" width="9" height="4" fill="#3a85ad" opacity="0.55"/><rect x="650" y="140" width="9" height="4" fill="#3a85ad" opacity="0.55"/><rect x="70" y="166" width="9" height="4" fill="#3a85ad" opacity="0.55"/><rect x="110" y="166" width="9" height="4" fill="#3a85ad" opacity="0.55"/><rect x="150" y="166" width="9" height="4" fill="#3a85ad" opacity="0.55"/><rect x="190" y="166" width="9" height="4" fill="#3a85ad" opacity="0.55"/><rect x="230" y="166" width="9" height="4" fill="#3a85ad" opacity="0.55"/><rect x="270" y="166" width="9" height="4" fill="#3a85ad" opacity="0.55"/><rect x="310" y="166" width="9" height="4" fill="#3a85ad" opacity="0.55"/><rect x="350" y="166" width="9" height="4" fill="#3a85ad" opacity="0.55"/><rect x="390" y="166" width="9" height="4" fill="#3a85ad" opacity="0.55"/><rect x="430" y="166" width="9" height="4" fill="#3a85ad" opacity="0.55"/><rect x="470" y="166" width="9" height="4" fill="#3a85ad" opacity="0.55"/><rect x="510" y="166" width="9" height="4" fill="#3a85ad" opacity="0.55"/><rect x="550" y="166" width="9" height="4" fill="#3a85ad" opacity="0.55"/><rect x="590" y="166" width="9" height="4" fill="#3a85ad" opacity="0.55"/><rect x="630" y="166" width="9" height="4" fill="#3a85ad" opacity="0.55"/><rect x="90" y="192" width="9" height="4" fill="#3a85ad" opacity="0.55"/><rect x="130" y="192" width="9" height="4" fill="#3a85ad" opacity="0.55"/><rect x="170" y="192" width="9" height="4" fill="#3a85ad" opacity="0.55"/><rect x="210" y="192" width="9" height="4" fill="#3a85ad" opacity="0.55"/><rect x="250" y="192" width="9" height="4" fill="#3a85ad" opacity="0.55"/><rect x="290" y="192" width="9" height="4" fill="#3a85ad" opacity="0.55"/><rect x="330" y="192" width="9" height="4" fill="#3a85ad" opacity="0.55"/><rect x="370" y="192" width="9" height="4" fill="#3a85ad" opacity="0.55"/><rect x="410" y="192" width="9" height="4" fill="#3a85ad" opacity="0.55"/><rect x="450" y="192" width="9" height="4" fill="#3a85ad" opacity="0.55"/><rect x="490" y="192" width="9" height="4" fill="#3a85ad" opacity="0.55"/><rect x="530" y="192" width="9" height="4" fill="#3a85ad" opacity="0.55"/><rect x="570" y="192" width="9" height="4" fill="#3a85ad" opacity="0.55"/><rect x="610" y="192" width="9" height="4" fill="#3a85ad" opacity="0.55"/><rect x="650" y="192" width="9" height="4" fill="#3a85ad" opacity="0.55"/><rect x="70" y="218" width="9" height="4" fill="#3a85ad" opacity="0.55"/><rect x="110" y="218" width="9" height="4" fill="#3a85ad" opacity="0.55"/><rect x="150" y="218" width="9" height="4" fill="#3a85ad" opacity="0.55"/><rect x="190" y="218" width="9" height="4" fill="#3a85ad" opacity="0.55"/><rect x="230" y="218" width="9" height="4" fill="#3a85ad" opacity="0.55"/><rect x="270" y="218" width="9" height="4" fill="#3a85ad" opacity="0.55"/><rect x="310" y="218" width="9" height="4" fill="#3a85ad" opacity="0.55"/><rect x="350" y="218" width="9" height="4" fill="#3a85ad" opacity="0.55"/><rect x="390" y="218" width="9" height="4" fill="#3a85ad" opacity="0.55"/><rect x="430" y="218" width="9" height="4" fill="#3a85ad" opacity="0.55"/><rect x="470" y="218" width="9" height="4" fill="#3a85ad" opacity="0.55"/><rect x="510" y="218" width="9" height="4" fill="#3a85ad" opacity="0.55"/><rect x="550" y="218" width="9" height="4" fill="#3a85ad" opacity="0.55"/><rect x="590" y="218" width="9" height="4" fill="#3a85ad" opacity="0.55"/><rect x="630" y="218" width="9" height="4" fill="#3a85ad" opacity="0.55"/><rect x="90" y="244" width="9" height="4" fill="#3a85ad" opacity="0.55"/><rect x="130" y="244" width="9" height="4" fill="#3a85ad" opacity="0.55"/><rect x="170" y="244" width="9" height="4" fill="#3a85ad" opacity="0.55"/><rect x="210" y="244" width="9" height="4" fill="#3a85ad" opacity="0.55"/><rect x="250" y="244" width="9" height="4" fill="#3a85ad" opacity="0.55"/><rect x="290" y="244" width="9" height="4" fill="#3a85ad" opacity="0.55"/><rect x="330" y="244" width="9" height="4" fill="#3a85ad" opacity="0.55"/><rect x="370" y="244" width="9" height="4" fill="#3a85ad" opacity="0.55"/><rect x="410" y="244" width="9" height="4" fill="#3a85ad" opacity="0.55"/><rect x="450" y="244" width="9" height="4" fill="#3a85ad" opacity="0.55"/><rect x="490" y="244" width="9" height="4" fill="#3a85ad" opacity="0.55"/><rect x="530" y="244" width="9" height="4" fill="#3a85ad" opacity="0.55"/><rect x="570" y="244" width="9" height="4" fill="#3a85ad" opacity="0.55"/><rect x="610" y="244" width="9" height="4" fill="#3a85ad" opacity="0.55"/><rect x="650" y="244" width="9" height="4" fill="#3a85ad" opacity="0.55"/><rect x="70" y="270" width="9" height="4" fill="#3a85ad" opacity="0.55"/><rect x="110" y="270" width="9" height="4" fill="#3a85ad" opacity="0.55"/><rect x="150" y="270" width="9" height="4" fill="#3a85ad" opacity="0.55"/><rect x="190" y="270" width="9" height="4" fill="#3a85ad" opacity="0.55"/><rect x="230" y="270" width="9" height="4" fill="#3a85ad" opacity="0.55"/><rect x="270" y="270" width="9" height="4" fill="#3a85ad" opacity="0.55"/><rect x="310" y="270" width="9" height="4" fill="#3a85ad" opacity="0.55"/><rect x="350" y="270" width="9" height="4" fill="#3a85ad" opacity="0.55"/><rect x="390" y="270" width="9" height="4" fill="#3a85ad" opacity="0.55"/><rect x="430" y="270" width="9" height="4" fill="#3a85ad" opacity="0.55"/><rect x="470" y="270" width="9" height="4" fill="#3a85ad" opacity="0.55"/><rect x="510" y="270" width="9" height="4" fill="#3a85ad" opacity="0.55"/><rect x="550" y="270" width="9" height="4" fill="#3a85ad" opacity="0.55"/><rect x="590" y="270" width="9" height="4" fill="#3a85ad" opacity="0.55"/><rect x="630" y="270" width="9" height="4" fill="#3a85ad" opacity="0.55"/><rect x="90" y="296" width="9" height="4" fill="#3a85ad" opacity="0.55"/><rect x="130" y="296" width="9" height="4" fill="#3a85ad" opacity="0.55"/><rect x="170" y="296" width="9" height="4" fill="#3a85ad" opacity="0.55"/><rect x="210" y="296" width="9" height="4" fill="#3a85ad" opacity="0.55"/><rect x="250" y="296" width="9" height="4" fill="#3a85ad" opacity="0.55"/><rect x="290" y="296" width="9" height="4" fill="#3a85ad" opacity="0.55"/><rect x="330" y="296" width="9" height="4" fill="#3a85ad" opacity="0.55"/><rect x="370" y="296" width="9" height="4" fill="#3a85ad" opacity="0.55"/><rect x="410" y="296" width="9" height="4" fill="#3a85ad" opacity="0.55"/><rect x="450" y="296" width="9" height="4" fill="#3a85ad" opacity="0.55"/><rect x="490" y="296" width="9" height="4" fill="#3a85ad" opacity="0.55"/><rect x="530" y="296" width="9" height="4" fill="#3a85ad" opacity="0.55"/><rect x="570" y="296" width="9" height="4" fill="#3a85ad" opacity="0.55"/><rect x="610" y="296" width="9" height="4" fill="#3a85ad" opacity="0.55"/><rect x="650" y="296" width="9" height="4" fill="#3a85ad" opacity="0.55"/><rect x="70" y="322" width="9" height="4" fill="#3a85ad" opacity="0.55"/><rect x="110" y="322" width="9" height="4" fill="#3a85ad" opacity="0.55"/><rect x="150" y="322" width="9" height="4" fill="#3a85ad" opacity="0.55"/><rect x="190" y="322" width="9" height="4" fill="#3a85ad" opacity="0.55"/><rect x="230" y="322" width="9" height="4" fill="#3a85ad" opacity="0.55"/><rect x="270" y="322" width="9" height="4" fill="#3a85ad" opacity="0.55"/><rect x="310" y="322" width="9" height="4" fill="#3a85ad" opacity="0.55"/><rect x="350" y="322" width="9" height="4" fill="#3a85ad" opacity="0.55"/><rect x="390" y="322" width="9" height="4" fill="#3a85ad" opacity="0.55"/><rect x="430" y="322" width="9" height="4" fill="#3a85ad" opacity="0.55"/><rect x="470" y="322" width="9" height="4" fill="#3a85ad" opacity="0.55"/><rect x="510" y="322" width="9" height="4" fill="#3a85ad" opacity="0.55"/><rect x="550" y="322" width="9" height="4" fill="#3a85ad" opacity="0.55"/><rect x="590" y="322" width="9" height="4" fill="#3a85ad" opacity="0.55"/><rect x="630" y="322" width="9" height="4" fill="#3a85ad" opacity="0.55"/><rect x="90" y="348" width="9" height="4" fill="#3a85ad" opacity="0.55"/><rect x="130" y="348" width="9" height="4" fill="#3a85ad" opacity="0.55"/><rect x="170" y="348" width="9" height="4" fill="#3a85ad" opacity="0.55"/><rect x="210" y="348" width="9" height="4" fill="#3a85ad" opacity="0.55"/><rect x="250" y="348" width="9" height="4" fill="#3a85ad" opacity="0.55"/><rect x="290" y="348" width="9" height="4" fill="#3a85ad" opacity="0.55"/><rect x="330" y="348" width="9" height="4" fill="#3a85ad" opacity="0.55"/><rect x="370" y="348" width="9" height="4" fill="#3a85ad" opacity="0.55"/><rect x="410" y="348" width="9" height="4" fill="#3a85ad" opacity="0.55"/><rect x="450" y="348" width="9" height="4" fill="#3a85ad" opacity="0.55"/><rect x="490" y="348" width="9" height="4" fill="#3a85ad" opacity="0.55"/><rect x="530" y="348" width="9" height="4" fill="#3a85ad" opacity="0.55"/><rect x="570" y="348" width="9" height="4" fill="#3a85ad" opacity="0.55"/><rect x="610" y="348" width="9" height="4" fill="#3a85ad" opacity="0.55"/><rect x="650" y="348" width="9" height="4" fill="#3a85ad" opacity="0.55"/><rect x="70" y="374" width="9" height="4" fill="#3a85ad" opacity="0.55"/><rect x="110" y="374" width="9" height="4" fill="#3a85ad" opacity="0.55"/><rect x="150" y="374" width="9" height="4" fill="#3a85ad" opacity="0.55"/><rect x="190" y="374" width="9" height="4" fill="#3a85ad" opacity="0.55"/><rect x="230" y="374" width="9" height="4" fill="#3a85ad" opacity="0.55"/><rect x="270" y="374" width="9" height="4" fill="#3a85ad" opacity="0.55"/><rect x="310" y="374" width="9" height="4" fill="#3a85ad" opacity="0.55"/><rect x="350" y="374" width="9" height="4" fill="#3a85ad" opacity="0.55"/><rect x="390" y="374" width="9" height="4" fill="#3a85ad" opacity="0.55"/><rect x="430" y="374" width="9" height="4" fill="#3a85ad" opacity="0.55"/><rect x="470" y="374" width="9" height="4" fill="#3a85ad" opacity="0.55"/><rect x="510" y="374" width="9" height="4" fill="#3a85ad" opacity="0.55"/><rect x="550" y="374" width="9" height="4" fill="#3a85ad" opacity="0.55"/><rect x="590" y="374" width="9" height="4" fill="#3a85ad" opacity="0.55"/><rect x="630" y="374" width="9" height="4" fill="#3a85ad" opacity="0.55"/><rect x="90" y="400" width="9" height="4" fill="#3a85ad" opacity="0.55"/><rect x="130" y="400" width="9" height="4" fill="#3a85ad" opacity="0.55"/><rect x="170" y="400" width="9" height="4" fill="#3a85ad" opacity="0.55"/><rect x="210" y="400" width="9" height="4" fill="#3a85ad" opacity="0.55"/><rect x="250" y="400" width="9" height="4" fill="#3a85ad" opacity="0.55"/><rect x="290" y="400" width="9" height="4" fill="#3a85ad" opacity="0.55"/><rect x="330" y="400" width="9" height="4" fill="#3a85ad" opacity="0.55"/><rect x="370" y="400" width="9" height="4" fill="#3a85ad" opacity="0.55"/><rect x="410" y="400" width="9" height="4" fill="#3a85ad" opacity="0.55"/><rect x="450" y="400" width="9" height="4" fill="#3a85ad" opacity="0.55"/><rect x="490" y="400" width="9" height="4" fill="#3a85ad" opacity="0.55"/><rect x="530" y="400" width="9" height="4" fill="#3a85ad" opacity="0.55"/><rect x="570" y="400" width="9" height="4" fill="#3a85ad" opacity="0.55"/><rect x="610" y="400" width="9" height="4" fill="#3a85ad" opacity="0.55"/><rect x="650" y="400" width="9" height="4" fill="#3a85ad" opacity="0.55"/><rect x="70" y="426" width="9" height="4" fill="#3a85ad" opacity="0.55"/><rect x="110" y="426" width="9" height="4" fill="#3a85ad" opacity="0.55"/><rect x="150" y="426" width="9" height="4" fill="#3a85ad" opacity="0.55"/><rect x="190" y="426" width="9" height="4" fill="#3a85ad" opacity="0.55"/><rect x="230" y="426" width="9" height="4" fill="#3a85ad" opacity="0.55"/><rect x="270" y="426" width="9" height="4" fill="#3a85ad" opacity="0.55"/><rect x="310" y="426" width="9" height="4" fill="#3a85ad" opacity="0.55"/><rect x="350" y="426" width="9" height="4" fill="#3a85ad" opacity="0.55"/><rect x="390" y="426" width="9" height="4" fill="#3a85ad" opacity="0.55"/><rect x="430" y="426" width="9" height="4" fill="#3a85ad" opacity="0.55"/><rect x="470" y="426" width="9" height="4" fill="#3a85ad" opacity="0.55"/><rect x="510" y="426" width="9" height="4" fill="#3a85ad" opacity="0.55"/><rect x="550" y="426" width="9" height="4" fill="#3a85ad" opacity="0.55"/><rect x="590" y="426" width="9" height="4" fill="#3a85ad" opacity="0.55"/><rect x="630" y="426" width="9" height="4" fill="#3a85ad" opacity="0.55"/><rect x="0" y="0" width="46" height="450" fill="#c2a875"/><rect x="41" y="0" width="5" height="12" fill="#9c855a"/><rect x="6" y="6" width="34" height="4" fill="#a89162"/><rect x="41" y="22" width="5" height="12" fill="#9c855a"/><rect x="6" y="28" width="34" height="4" fill="#a89162"/><rect x="41" y="44" width="5" height="12" fill="#9c855a"/><rect x="6" y="50" width="34" height="4" fill="#a89162"/><rect x="41" y="66" width="5" height="12" fill="#9c855a"/><rect x="6" y="72" width="34" height="4" fill="#a89162"/><rect x="41" y="88" width="5" height="12" fill="#9c855a"/><rect x="6" y="94" width="34" height="4" fill="#a89162"/><rect x="41" y="110" width="5" height="12" fill="#9c855a"/><rect x="6" y="116" width="34" height="4" fill="#a89162"/><rect x="41" y="132" width="5" height="12" fill="#9c855a"/><rect x="6" y="138" width="34" height="4" fill="#a89162"/><rect x="41" y="154" width="5" height="12" fill="#9c855a"/><rect x="6" y="160" width="34" height="4" fill="#a89162"/><rect x="41" y="176" width="5" height="12" fill="#9c855a"/><rect x="6" y="182" width="34" height="4" fill="#a89162"/><rect x="41" y="198" width="5" height="12" fill="#9c855a"/><rect x="6" y="204" width="34" height="4" fill="#a89162"/><rect x="41" y="220" width="5" height="12" fill="#9c855a"/><rect x="6" y="226" width="34" height="4" fill="#a89162"/><rect x="41" y="242" width="5" height="12" fill="#9c855a"/><rect x="6" y="248" width="34" height="4" fill="#a89162"/><rect x="41" y="264" width="5" height="12" fill="#9c855a"/><rect x="6" y="270" width="34" height="4" fill="#a89162"/><rect x="41" y="286" width="5" height="12" fill="#9c855a"/><rect x="6" y="292" width="34" height="4" fill="#a89162"/><rect x="41" y="308" width="5" height="12" fill="#9c855a"/><rect x="6" y="314" width="34" height="4" fill="#a89162"/><rect x="41" y="330" width="5" height="12" fill="#9c855a"/><rect x="6" y="336" width="34" height="4" fill="#a89162"/><rect x="41" y="352" width="5" height="12" fill="#9c855a"/><rect x="6" y="358" width="34" height="4" fill="#a89162"/><rect x="41" y="374" width="5" height="12" fill="#9c855a"/><rect x="6" y="380" width="34" height="4" fill="#a89162"/><rect x="41" y="396" width="5" height="12" fill="#9c855a"/><rect x="6" y="402" width="34" height="4" fill="#a89162"/><rect x="41" y="418" width="5" height="12" fill="#9c855a"/><rect x="6" y="424" width="34" height="4" fill="#a89162"/><rect x="41" y="440" width="5" height="12" fill="#9c855a"/><rect x="6" y="446" width="34" height="4" fill="#a89162"/><rect x="674" y="0" width="46" height="450" fill="#c2a875"/><rect x="674" y="0" width="5" height="12" fill="#9c855a"/><rect x="680" y="6" width="34" height="4" fill="#a89162"/><rect x="674" y="22" width="5" height="12" fill="#9c855a"/><rect x="680" y="28" width="34" height="4" fill="#a89162"/><rect x="674" y="44" width="5" height="12" fill="#9c855a"/><rect x="680" y="50" width="34" height="4" fill="#a89162"/><rect x="674" y="66" width="5" height="12" fill="#9c855a"/><rect x="680" y="72" width="34" height="4" fill="#a89162"/><rect x="674" y="88" width="5" height="12" fill="#9c855a"/><rect x="680" y="94" width="34" height="4" fill="#a89162"/><rect x="674" y="110" width="5" height="12" fill="#9c855a"/><rect x="680" y="116" width="34" height="4" fill="#a89162"/><rect x="674" y="132" width="5" height="12" fill="#9c855a"/><rect x="680" y="138" width="34" height="4" fill="#a89162"/><rect x="674" y="154" width="5" height="12" fill="#9c855a"/><rect x="680" y="160" width="34" height="4" fill="#a89162"/><rect x="674" y="176" width="5" height="12" fill="#9c855a"/><rect x="680" y="182" width="34" height="4" fill="#a89162"/><rect x="674" y="198" width="5" height="12" fill="#9c855a"/><rect x="680" y="204" width="34" height="4" fill="#a89162"/><rect x="674" y="220" width="5" height="12" fill="#9c855a"/><rect x="680" y="226" width="34" height="4" fill="#a89162"/><rect x="674" y="242" width="5" height="12" fill="#9c855a"/><rect x="680" y="248" width="34" height="4" fill="#a89162"/><rect x="674" y="264" width="5" height="12" fill="#9c855a"/><rect x="680" y="270" width="34" height="4" fill="#a89162"/><rect x="674" y="286" width="5" height="12" fill="#9c855a"/><rect x="680" y="292" width="34" height="4" fill="#a89162"/><rect x="674" y="308" width="5" height="12" fill="#9c855a"/><rect x="680" y="314" width="34" height="4" fill="#a89162"/><rect x="674" y="330" width="5" height="12" fill="#9c855a"/><rect x="680" y="336" width="34" height="4" fill="#a89162"/><rect x="674" y="352" width="5" height="12" fill="#9c855a"/><rect x="680" y="358" width="34" height="4" fill="#a89162"/><rect x="674" y="374" width="5" height="12" fill="#9c855a"/><rect x="680" y="380" width="34" height="4" fill="#a89162"/><rect x="674" y="396" width="5" height="12" fill="#9c855a"/><rect x="680" y="402" width="34" height="4" fill="#a89162"/><rect x="674" y="418" width="5" height="12" fill="#9c855a"/><rect x="680" y="424" width="34" height="4" fill="#a89162"/><rect x="674" y="440" width="5" height="12" fill="#9c855a"/><rect x="680" y="446" width="34" height="4" fill="#a89162"/><rect x="317.5" y="410.5" width="25.5" height="25.5" fill="#bcd8e6"/><rect x="377.0" y="410.5" width="25.5" height="25.5" fill="#bcd8e6"/><rect x="343.0" y="419.0" width="34.0" height="17.0" fill="#e8f6ff"/><rect x="317.5" y="206.5" width="85.0" height="187.0" fill="#9c2a16"/><rect x="309.0" y="240.5" width="102.0" height="119.0" fill="#9c2a16"/><rect x="326.0" y="215.0" width="68.0" height="170.0" fill="#3f7d3a"/><rect x="334.5" y="215.0" width="51.0" height="170.0" fill="#4f9b46"/><rect x="351.5" y="223.5" width="17.0" height="153.0" fill="#356b30"/><rect x="334.5" y="249.0" width="51.0" height="8.5" fill="#356b30"/><rect x="334.5" y="291.5" width="51.0" height="8.5" fill="#356b30"/><rect x="334.5" y="334.0" width="51.0" height="8.5" fill="#356b30"/><rect x="351.5" y="181.0" width="17.0" height="34.0" fill="#caa24a"/><rect x="326.0" y="376.5" width="68.0" height="34.0" fill="#e9eef2"/><rect x="334.5" y="385.0" width="51.0" height="17.0" fill="#b9c4cc"/><rect x="343.0" y="359.5" width="34.0" height="17.0" fill="#cfd8de"/><rect x="212.0" y="123.0" width="36.0" height="54.0" fill="#2b2b2b"/><rect x="216.5" y="123.0" width="27.0" height="54.0" fill="#3a3a3a"/><rect x="212.0" y="132.0" width="36.0" height="4.5" fill="#d8a33a"/><rect x="212.0" y="159.0" width="36.0" height="4.5" fill="#d8a33a"/><rect x="212.0" y="141.0" width="36.0" height="13.5" fill="#caa24a"/><rect x="221.0" y="145.5" width="18.0" height="4.5" fill="#1d1d1d"/><rect x="212.0" y="118.5" width="36.0" height="9.0" fill="#444444"/><rect x="212.0" y="172.5" width="36.0" height="9.0" fill="#444444"/><rect x="462.0" y="133.0" width="36.0" height="36.0" fill="#e8eef2"/><rect x="457.5" y="137.5" width="45.0" height="27.0" fill="#e8eef2"/><rect x="466.5" y="128.5" width="27.0" height="45.0" fill="#e8eef2"/><rect x="466.5" y="137.5" width="18.0" height="13.5" fill="#ffffff"/><rect x="462.0" y="160.0" width="36.0" height="13.5" fill="#cdd6dc"/><rect x="462.0" y="169.0" width="9.0" height="18.0" fill="#9aa4ad"/><rect x="489.0" y="169.0" width="9.0" height="18.0" fill="#9aa4ad"/><rect x="466.5" y="146.5" width="9.0" height="4.5" fill="#b7c0c7"/><rect x="550.0" y="280.0" width="20.0" height="20.0" fill="#a9791f"/><rect x="545.0" y="295.0" width="30.0" height="5.0" fill="#caa24a"/><rect x="555.0" y="230.0" width="10.0" height="10.0" fill="#ffe79a"/><rect x="550.0" y="240.0" width="20.0" height="30.0" fill="#ffd23a"/><rect x="555.0" y="240.0" width="10.0" height="30.0" fill="#fff0b0"/><rect x="545.0" y="245.0" width="5.0" height="20.0" fill="#e0a92a"/><rect x="570.0" y="245.0" width="5.0" height="20.0" fill="#e0a92a"/><rect x="550.0" y="270.0" width="20.0" height="10.0" fill="#e0a92a"/><rect x="229.0" y="248.5" width="8.4" height="63.0" fill="#c9ced6"/><rect x="237.4" y="252.7" width="37.8" height="37.8" fill="#000000"/><rect x="237.4" y="252.7" width="12.6" height="12.6" fill="#111111"/><rect x="262.6" y="252.7" width="12.6" height="12.6" fill="#111111"/><rect x="250.0" y="252.7" width="12.6" height="12.6" fill="#ffffff"/><rect x="237.4" y="265.3" width="12.6" height="12.6" fill="#ffffff"/><rect x="250.0" y="265.3" width="12.6" height="12.6" fill="#111111"/><rect x="262.6" y="265.3" width="12.6" height="12.6" fill="#ffffff"/><rect x="237.4" y="277.9" width="12.6" height="12.6" fill="#111111"/><rect x="250.0" y="277.9" width="12.6" height="12.6" fill="#ffffff"/><rect x="262.6" y="277.9" width="12.6" height="12.6" fill="#111111"/><g transform="translate(24,392)"><rect width="170" height="40" rx="8" fill="#FFC83D" stroke="#10131c" stroke-width="4"/><text x="85" y="27" font-family="sans-serif" font-weight="900" font-size="18" fill="#10131c" text-anchor="middle">拾え！</text></g></svg>