<svg xmlns="http://www.w3.org/2000/svg" viewBox="0 0 720 450" width="720" height="450"><rect width="720" height="450" fill="#BDE3FF"/><defs><pattern id="ht" width="20" height="20" patternUnits="userSpaceOnUse"><circle cx="4" cy="4" r="2.2" fill="#2D2640" opacity="0.1"/></pattern></defs><rect width="720" height="450" fill="url(#ht)"/><g transform="translate(-40,-20) scale(0.9)"><g><line x1="180" y1="210" x2="310" y2="210" stroke="#FF6A52" stroke-width="10" stroke-linejoin="round" stroke-linecap="round"/><line x1="180" y1="250" x2="310" y2="250" stroke="#FF6A52" stroke-width="10" stroke-linejoin="round" stroke-linecap="round"/><line x1="180" y1="290" x2="310" y2="290" stroke="#FF6A52" stroke-width="10" stroke-linejoin="round" stroke-linecap="round"/><rect x="310" y="220" width="200" height="74" rx="22" fill="#FF6A52" stroke="#2D2640" stroke-width="7" stroke-linejoin="round" stroke-linecap="round"/><path d="M350 220 q40 -54 110 0 Z" fill="#57C4F0" stroke="#2D2640" stroke-width="7" stroke-linejoin="round" stroke-linecap="round"/><circle cx="350" cy="300" r="30" fill="#2D2640"/><circle cx="350" cy="300" r="12" fill="#fff"/><circle cx="478" cy="300" r="30" fill="#2D2640"/><circle cx="478" cy="300" r="12" fill="#fff"/><g><circle cx="395.8" cy="221.2" r="9.799999999999999" fill="#fff" stroke="#2D2640" stroke-width="4" stroke-linejoin="round" stroke-linecap="round"/><circle cx="397.90000000000003" cy="222.6" r="4.116" fill="#2D2640"/><circle cx="432.2" cy="221.2" r="9.799999999999999" fill="#fff" stroke="#2D2640" stroke-width="4" stroke-linejoin="round" stroke-linecap="round"/><circle cx="434.3" cy="222.6" r="4.116" fill="#2D2640"/><path d="M395.8 239.4 Q414 257.6 432.2 239.4" fill="none" stroke="#2D2640" stroke-width="7" stroke-linejoin="round" stroke-linecap="round"/></g></g></g><g transform="translate(28,26)"><rect width="118" height="40" rx="20" fill="#fff" stroke="#2D2640" stroke-width="4" stroke-linejoin="round" stroke-linecap="round"/><path d="M26 14 a8 8 0 0 1 14 0 a8 8 0 0 1 14 0 q0 10 -14 18 q-14 -8 -14 -18 Z" fill="#FF6A52"/><text x="74" y="27" font-family="Arial Black,sans-serif" font-weight="900" font-size="15" fill="#2D2640">x3</text></g><g transform="translate(24,392) rotate(-3)"><rect width="150" height="40" rx="20" fill="#8E7BFF" stroke="#2D2640" stroke-width="4" stroke-linejoin="round" stroke-linecap="round"/><text x="75" y="27" font-family="Arial Black,sans-serif" font-weight="900" font-size="16" fill="#2D2640" text-anchor="middle">LAP 2/3</text></g></svg>