<svg xmlns="http://www.w3.org/2000/svg" viewBox="0 0 720 450" width="720" height="450"><rect width="720" height="450" fill="#A9ECCB"/><defs><pattern id="ht" width="20" height="20" patternUnits="userSpaceOnUse"><circle cx="4" cy="4" r="2.2" fill="#2D2640" opacity="0.1"/></pattern></defs><rect width="720" height="450" fill="url(#ht)"/><g transform="translate(-40,-20) scale(0.9)"><g><rect x="310" y="220" width="180" height="110" rx="10" fill="#43D8A0" stroke="#2D2640" stroke-width="7" stroke-linejoin="round" stroke-linecap="round"/><rect x="310" y="192" width="34" height="34" rx="6" fill="#43D8A0" stroke="#2D2640" stroke-width="7" stroke-linejoin="round" stroke-linecap="round"/><rect x="358" y="192" width="34" height="34" rx="6" fill="#43D8A0" stroke="#2D2640" stroke-width="7" stroke-linejoin="round" stroke-linecap="round"/><rect x="406" y="192" width="34" height="34" rx="6" fill="#43D8A0" stroke="#2D2640" stroke-width="7" stroke-linejoin="round" stroke-linecap="round"/><rect x="454" y="192" width="34" height="34" rx="6" fill="#43D8A0" stroke="#2D2640" stroke-width="7" stroke-linejoin="round" stroke-linecap="round"/><rect x="378" y="270" width="44" height="60" rx="8" fill="#2D2640"/><line x1="470" y1="192" x2="470" y2="132" stroke="#2D2640" stroke-width="6" stroke-linejoin="round" stroke-linecap="round"/><path d="M470 132 l44 14 l-44 16 Z" fill="#FF6A52" stroke="#2D2640" stroke-width="4" stroke-linejoin="round" stroke-linecap="round"/><g><circle cx="335.7" cy="253.8" r="7.700000000000001" fill="#fff" stroke="#2D2640" stroke-width="4" stroke-linejoin="round" stroke-linecap="round"/><circle cx="337.34999999999997" cy="254.9" r="3.2340000000000004" fill="#2D2640"/><circle cx="364.3" cy="253.8" r="7.700000000000001" fill="#fff" stroke="#2D2640" stroke-width="4" stroke-linejoin="round" stroke-linecap="round"/><circle cx="365.95" cy="254.9" r="3.2340000000000004" fill="#2D2640"/><path d="M335.7 268.1 Q350 282.4 364.3 268.1" fill="none" stroke="#2D2640" stroke-width="7" stroke-linejoin="round" stroke-linecap="round"/></g></g></g><g transform="translate(28,26)"><rect width="118" height="40" rx="20" fill="#fff" stroke="#2D2640" stroke-width="4" stroke-linejoin="round" stroke-linecap="round"/><path d="M26 14 a8 8 0 0 1 14 0 a8 8 0 0 1 14 0 q0 10 -14 18 q-14 -8 -14 -18 Z" fill="#FF6A52"/><text x="74" y="27" font-family="Arial Black,sans-serif" font-weight="900" font-size="15" fill="#2D2640">x3</text></g><g transform="translate(24,392) rotate(-3)"><rect width="150" height="40" rx="20" fill="#57C4F0" stroke="#2D2640" stroke-width="4" stroke-linejoin="round" stroke-linecap="round"/><text x="75" y="27" font-family="Arial Black,sans-serif" font-weight="900" font-size="16" fill="#2D2640" text-anchor="middle">TURN 4</text></g></svg>