<svg xmlns="http://www.w3.org/2000/svg" viewBox="0 0 800 500" width="800" height="500"><rect width="800" height="500" fill="#C9B6FF"/><defs><pattern id="ht" width="20" height="20" patternUnits="userSpaceOnUse"><circle cx="4" cy="4" r="2.2" fill="#2D2640" opacity="0.1"/></pattern></defs><rect width="800" height="500" fill="url(#ht)"/><polygon points="400.0,130.0 430.6,207.9 514.1,212.9 449.5,266.1 470.5,347.1 400.0,302.0 329.5,347.1 350.5,266.1 285.9,212.9 369.4,207.9" fill="#FFC83D" stroke="#2D2640" stroke-width="7" stroke-linejoin="round" stroke-linecap="round"/><g><circle cx="376.6" cy="244.4" r="12.6" fill="#fff" stroke="#2D2640" stroke-width="4" stroke-linejoin="round" stroke-linecap="round"/><circle cx="379.3" cy="246.20000000000002" r="5.292" fill="#2D2640"/><circle cx="423.4" cy="244.4" r="12.6" fill="#fff" stroke="#2D2640" stroke-width="4" stroke-linejoin="round" stroke-linecap="round"/><circle cx="426.09999999999997" cy="246.20000000000002" r="5.292" fill="#2D2640"/><path d="M376.6 267.8 Q400 291.2 423.4 267.8" fill="none" stroke="#2D2640" stroke-width="7" stroke-linejoin="round" stroke-linecap="round"/></g><path d="M250 150 L256.0 164.0 L270 170 L256.0 176.0 L250 190 L244.0 176.0 L230 170 L244.0 164.0 Z" fill="#FF6FA5" stroke="#2D2640" stroke-width="4" stroke-linejoin="round" stroke-linecap="round"/><path d="M550 304 L554.8 315.2 L566 320 L554.8 324.8 L550 336 L545.2 324.8 L534 320 L545.2 315.2 Z" fill="#FF6A52" stroke="#2D2640" stroke-width="4" stroke-linejoin="round" stroke-linecap="round"/><g transform="rotate(-14 720 86)"><polygon points="720.0,30.0 730.7,53.0 752.9,40.7 748.1,65.6 773.3,68.7 754.7,86.0 773.3,103.3 748.1,106.4 752.9,131.3 730.7,119.0 720.0,142.0 709.3,119.0 687.1,131.3 691.9,106.4 666.7,103.3 685.3,86.0 666.7,68.7 691.9,65.6 687.1,40.7 709.3,53.0" fill="#FFC83D" stroke="#2D2640" stroke-width="5" stroke-linejoin="round" stroke-linecap="round"/><text x="720" y="92" font-family="Arial Black, sans-serif" font-weight="900" font-size="20" fill="#2D2640" text-anchor="middle">48H!</text></g></svg>