<svg xmlns="http://www.w3.org/2000/svg" viewBox="0 0 800 500" width="800" height="500"><defs>
      <linearGradient id="g" x1="0" y1="0" x2="1" y2="1">
        <stop offset="0" stop-color="#1A1340"/><stop offset="1" stop-color="#0C0E22"/>
      </linearGradient>
      <radialGradient id="glow" cx="0.7" cy="0.25" r="0.8">
        <stop offset="0" stop-color="#A98BFF" stop-opacity="0.55"/>
        <stop offset="1" stop-color="#A98BFF" stop-opacity="0"/>
      </radialGradient></defs><rect width="800" height="500" fill="url(#g)"/><rect width="800" height="500" fill="url(#glow)"/><g opacity="0.05" stroke="#ffffff" stroke-width="1"><line x1="0" y1="0" x2="0" y2="500"/><line x1="40" y1="0" x2="40" y2="500"/><line x1="80" y1="0" x2="80" y2="500"/><line x1="120" y1="0" x2="120" y2="500"/><line x1="160" y1="0" x2="160" y2="500"/><line x1="200" y1="0" x2="200" y2="500"/><line x1="240" y1="0" x2="240" y2="500"/><line x1="280" y1="0" x2="280" y2="500"/><line x1="320" y1="0" x2="320" y2="500"/><line x1="360" y1="0" x2="360" y2="500"/><line x1="400" y1="0" x2="400" y2="500"/><line x1="440" y1="0" x2="440" y2="500"/><line x1="480" y1="0" x2="480" y2="500"/><line x1="520" y1="0" x2="520" y2="500"/><line x1="560" y1="0" x2="560" y2="500"/><line x1="600" y1="0" x2="600" y2="500"/><line x1="640" y1="0" x2="640" y2="500"/><line x1="680" y1="0" x2="680" y2="500"/><line x1="720" y1="0" x2="720" y2="500"/><line x1="760" y1="0" x2="760" y2="500"/><line x1="800" y1="0" x2="800" y2="500"/><line x1="0" y1="0" x2="800" y2="0"/><line x1="0" y1="40" x2="800" y2="40"/><line x1="0" y1="80" x2="800" y2="80"/><line x1="0" y1="120" x2="800" y2="120"/><line x1="0" y1="160" x2="800" y2="160"/><line x1="0" y1="200" x2="800" y2="200"/><line x1="0" y1="240" x2="800" y2="240"/><line x1="0" y1="280" x2="800" y2="280"/><line x1="0" y1="320" x2="800" y2="320"/><line x1="0" y1="360" x2="800" y2="360"/><line x1="0" y1="400" x2="800" y2="400"/><line x1="0" y1="440" x2="800" y2="440"/><line x1="0" y1="480" x2="800" y2="480"/></g><g><circle cx="600" cy="170" r="70" fill="none" stroke="#A98BFF" stroke-width="2" opacity="0.5"/><circle cx="600" cy="170" r="120" fill="none" stroke="#A98BFF" stroke-width="2" opacity="0.3"/><circle cx="471" cy="64" r="1.7" fill="#fff" opacity="0.44"/><circle cx="615" cy="133" r="3.9" fill="#fff" opacity="0.43"/><circle cx="640" cy="199" r="3.8" fill="#fff" opacity="0.82"/><circle cx="408" cy="172" r="2.2" fill="#fff" opacity="0.79"/><circle cx="652" cy="194" r="3.1" fill="#fff" opacity="0.61"/><circle cx="583" cy="139" r="2.0" fill="#fff" opacity="0.88"/><circle cx="760" cy="191" r="1.6" fill="#fff" opacity="0.46"/><circle cx="653" cy="199" r="3.0" fill="#fff" opacity="0.82"/><circle cx="758" cy="108" r="2.1" fill="#fff" opacity="0.99"/><circle cx="601" cy="213" r="3.5" fill="#fff" opacity="0.47"/><circle cx="365" cy="238" r="2.6" fill="#fff" opacity="0.93"/><circle cx="360" cy="257" r="2.7" fill="#fff" opacity="0.76"/><circle cx="439" cy="238" r="2.0" fill="#fff" opacity="0.74"/><circle cx="726" cy="164" r="3.6" fill="#fff" opacity="0.96"/><circle cx="444" cy="164" r="1.9" fill="#fff" opacity="0.57"/><circle cx="694" cy="272" r="2.9" fill="#fff" opacity="0.73"/><circle cx="560" cy="269" r="3.4" fill="#fff" opacity="0.83"/><circle cx="366" cy="282" r="2.8" fill="#fff" opacity="0.42"/><circle cx="408" cy="63" r="1.6" fill="#fff" opacity="0.40"/><circle cx="689" cy="221" r="2.4" fill="#fff" opacity="0.45"/><circle cx="667" cy="279" r="2.8" fill="#fff" opacity="0.90"/><circle cx="409" cy="280" r="3.8" fill="#fff" opacity="0.45"/><circle cx="441" cy="160" r="4.0" fill="#fff" opacity="0.44"/><circle cx="708" cy="151" r="3.6" fill="#fff" opacity="0.61"/><circle cx="562" cy="267" r="1.6" fill="#fff" opacity="0.77"/><circle cx="743" cy="210" r="3.8" fill="#fff" opacity="0.64"/><circle cx="600" cy="170" r="13" fill="#FFD23F"/><circle cx="690" cy="120" r="6" fill="#A98BFF"/></g><rect width="800" height="500" fill="url(#glow)" opacity="0.25"/><g font-family="Courier New, monospace" font-weight="bold"><rect x="708" y="22" width="70" height="26" rx="6" fill="#FFD23F"/><text x="743" y="40" font-size="15" fill="#16131F" text-anchor="middle">48H</text></g><text x="40" y="446" font-family="Arial Black, Arial, sans-serif" font-weight="900" font-size="40" fill="#fff" letter-spacing="-1">STAR FORAGER</text><text x="42" y="470" font-family="Courier New, monospace" font-size="14" fill="#A98BFF" letter-spacing="2">ACTION // 48H JAM</text></svg>