<svg xmlns="http://www.w3.org/2000/svg" viewBox="0 0 800 500" width="800" height="500"><rect width="800" height="500" fill="#A9ECCB"/><defs><pattern id="ht" width="20" height="20" patternUnits="userSpaceOnUse"><circle cx="4" cy="4" r="2.2" fill="#2D2640" opacity="0.1"/></pattern></defs><rect width="800" height="500" fill="url(#ht)"/><g><rect x="310" y="220" width="180" height="110" rx="10" fill="#43D8A0" stroke="#2D2640" stroke-width="7" stroke-linejoin="round" stroke-linecap="round"/><rect x="310" y="192" width="34" height="34" rx="6" fill="#43D8A0" stroke="#2D2640" stroke-width="7" stroke-linejoin="round" stroke-linecap="round"/><rect x="358" y="192" width="34" height="34" rx="6" fill="#43D8A0" stroke="#2D2640" stroke-width="7" stroke-linejoin="round" stroke-linecap="round"/><rect x="406" y="192" width="34" height="34" rx="6" fill="#43D8A0" stroke="#2D2640" stroke-width="7" stroke-linejoin="round" stroke-linecap="round"/><rect x="454" y="192" width="34" height="34" rx="6" fill="#43D8A0" stroke="#2D2640" stroke-width="7" stroke-linejoin="round" stroke-linecap="round"/><rect x="378" y="270" width="44" height="60" rx="8" fill="#2D2640"/><line x1="470" y1="192" x2="470" y2="132" stroke="#2D2640" stroke-width="6" stroke-linejoin="round" stroke-linecap="round"/><path d="M470 132 l44 14 l-44 16 Z" fill="#FF6A52" stroke="#2D2640" stroke-width="4" stroke-linejoin="round" stroke-linecap="round"/><g><circle cx="335.7" cy="253.8" r="7.700000000000001" fill="#fff" stroke="#2D2640" stroke-width="4" stroke-linejoin="round" stroke-linecap="round"/><circle cx="337.34999999999997" cy="254.9" r="3.2340000000000004" fill="#2D2640"/><circle cx="364.3" cy="253.8" r="7.700000000000001" fill="#fff" stroke="#2D2640" stroke-width="4" stroke-linejoin="round" stroke-linecap="round"/><circle cx="365.95" cy="254.9" r="3.2340000000000004" fill="#2D2640"/><path d="M335.7 268.1 Q350 282.4 364.3 268.1" fill="none" stroke="#2D2640" stroke-width="7" stroke-linejoin="round" stroke-linecap="round"/></g></g><g transform="rotate(-14 720 86)"><polygon points="720.0,30.0 730.7,53.0 752.9,40.7 748.1,65.6 773.3,68.7 754.7,86.0 773.3,103.3 748.1,106.4 752.9,131.3 730.7,119.0 720.0,142.0 709.3,119.0 687.1,131.3 691.9,106.4 666.7,103.3 685.3,86.0 666.7,68.7 691.9,65.6 687.1,40.7 709.3,53.0" fill="#FFC83D" stroke="#2D2640" stroke-width="5" stroke-linejoin="round" stroke-linecap="round"/><text x="720" y="92" font-family="Arial Black, sans-serif" font-weight="900" font-size="20" fill="#2D2640" text-anchor="middle">48H!</text></g></svg>