<svg xmlns="http://www.w3.org/2000/svg" viewBox="0 0 800 500" width="800" height="500"><rect width="800" height="500" fill="#FFC2D6"/><defs><pattern id="ht" width="20" height="20" patternUnits="userSpaceOnUse"><circle cx="4" cy="4" r="2.2" fill="#2D2640" opacity="0.1"/></pattern></defs><rect width="800" height="500" fill="url(#ht)"/><g font-family="Arial Black, sans-serif" font-weight="900"><rect x="250" y="200" width="92" height="92" rx="16" fill="#FF6FA5" stroke="#2D2640" stroke-width="7" stroke-linejoin="round" stroke-linecap="round"/><text x="296" y="266" font-size="56" fill="#2D2640" text-anchor="middle">W</text><rect x="358" y="212" width="92" height="92" rx="16" fill="#FFC83D" stroke="#2D2640" stroke-width="7" stroke-linejoin="round" stroke-linecap="round"/><text x="404" y="278" font-size="56" fill="#2D2640" text-anchor="middle">O</text><rect x="466" y="200" width="92" height="92" rx="16" fill="#57C4F0" stroke="#2D2640" stroke-width="7" stroke-linejoin="round" stroke-linecap="round"/><text x="512" y="266" font-size="56" fill="#2D2640" text-anchor="middle">W</text><g><circle cx="447.0" cy="344.0" r="7.0" fill="#fff" stroke="#2D2640" stroke-width="4" stroke-linejoin="round" stroke-linecap="round"/><circle cx="448.5" cy="345.0" r="2.94" fill="#2D2640"/><circle cx="473.0" cy="344.0" r="7.0" fill="#fff" stroke="#2D2640" stroke-width="4" stroke-linejoin="round" stroke-linecap="round"/><circle cx="474.5" cy="345.0" r="2.94" fill="#2D2640"/><path d="M445.0 355.0 Q460 374.0 475.0 355.0 Z" fill="#2D2640"/><path d="M445.0 355.0 Q460 361.0 475.0 355.0" fill="#fff"/></g></g><g transform="rotate(-14 720 86)"><polygon points="720.0,30.0 730.7,53.0 752.9,40.7 748.1,65.6 773.3,68.7 754.7,86.0 773.3,103.3 748.1,106.4 752.9,131.3 730.7,119.0 720.0,142.0 709.3,119.0 687.1,131.3 691.9,106.4 666.7,103.3 685.3,86.0 666.7,68.7 691.9,65.6 687.1,40.7 709.3,53.0" fill="#FFC83D" stroke="#2D2640" stroke-width="5" stroke-linejoin="round" stroke-linecap="round"/><text x="720" y="92" font-family="Arial Black, sans-serif" font-weight="900" font-size="20" fill="#2D2640" text-anchor="middle">48H!</text></g></svg>